<?xml version="1.0" encoding="UTF-8" standalone="no"?>
<!-- Created with Inkscape (http://www.inkscape.org/) -->
<svg xmlns:dc="http://purl.org/dc/elements/1.1/" xmlns:cc="http://creativecommons.org/ns#" xmlns:rdf="http://www.w3.org/1999/02/22-rdf-syntax-ns#" xmlns:svg="http://www.w3.org/2000/svg" xmlns="http://www.w3.org/2000/svg" xmlns:xlink="http://www.w3.org/1999/xlink" xmlns:sodipodi="http://sodipodi.sourceforge.net/DTD/sodipodi-0.dtd" xmlns:inkscape="http://www.inkscape.org/namespaces/inkscape" width="64" height="64" id="svg2" version="1.1" inkscape:version="0.47 r22583" sodipodi:docname="vz.svg" inkscape:export-filename="C:\Users\Kristian\Desktop\mute.png" inkscape:export-xdpi="90" inkscape:export-ydpi="90">
  <defs id="defs4">
    <linearGradient inkscape:collect="always" id="linearGradient3671">
      <stop style="stop-color: rgb(0, 51, 128); stop-opacity: 1;" offset="0" id="stop3673"/>
      <stop style="stop-color: rgb(0, 51, 128); stop-opacity: 0;" offset="1" id="stop3675"/>
    </linearGradient>
    <linearGradient id="linearGradient3645">
      <stop style="stop-color: rgb(0, 0, 0); stop-opacity: 0;" offset="0" id="stop3647"/>
      <stop id="stop3653" offset="0.5" style="stop-color: rgb(100, 255, 192); stop-opacity: 0.498039;"/>
      <stop style="stop-color: rgb(0, 0, 0); stop-opacity: 0;" offset="1" id="stop3649"/>
    </linearGradient>
    <linearGradient inkscape:collect="always" id="linearGradient3631">
      <stop style="stop-color: rgb(255, 255, 255); stop-opacity: 1;" offset="0" id="stop3633"/>
      <stop style="stop-color: rgb(255, 255, 255); stop-opacity: 0;" offset="1" id="stop3635"/>
    </linearGradient>
    <linearGradient inkscape:collect="always" id="linearGradient3616">
      <stop style="stop-color: rgb(0, 25, 93); stop-opacity: 1;" offset="0" id="stop3618"/>
      <stop style="stop-color: rgb(0, 25, 93); stop-opacity: 0;" offset="1" id="stop3620"/>
    </linearGradient>
    <inkscape:perspective sodipodi:type="inkscape:persp3d" inkscape:vp_x="0 : 526.18109 : 1" inkscape:vp_y="0 : 1000 : 0" inkscape:vp_z="744.09448 : 526.18109 : 1" inkscape:persp3d-origin="372.04724 : 350.78739 : 1" id="perspective10"/>
    <inkscape:perspective id="perspective2824" inkscape:persp3d-origin="0.5 : 0.33333333 : 1" inkscape:vp_z="1 : 0.5 : 1" inkscape:vp_y="0 : 1000 : 0" inkscape:vp_x="0 : 0.5 : 1" sodipodi:type="inkscape:persp3d"/>
    <linearGradient inkscape:collect="always" xlink:href="#linearGradient3616" id="linearGradient3622" x1="-49.005947" y1="1025.9885" x2="-44.414112" y2="1004.0629" gradientUnits="userSpaceOnUse"/>
    <linearGradient inkscape:collect="always" xlink:href="#linearGradient3631" id="linearGradient3637" x1="-48.639454" y1="995.6792" x2="-44.510239" y2="1015.0291" gradientUnits="userSpaceOnUse"/>
    <linearGradient inkscape:collect="always" xlink:href="#linearGradient3645" id="linearGradient3651" x1="-44.47279" y1="998.37738" x2="-44.47279" y2="1024.6411" gradientUnits="userSpaceOnUse" gradientTransform="translate(19.2177, 4.59184)"/>
    <filter inkscape:collect="always" id="filter3667">
      <feGaussianBlur inkscape:collect="always" stdDeviation="0.24314947" id="feGaussianBlur3669"/>
    </filter>
    <linearGradient inkscape:collect="always" xlink:href="#linearGradient3671" id="linearGradient3677" x1="-53.70623" y1="981.66858" x2="-27.639" y2="1078.0972" gradientUnits="userSpaceOnUse"/>
    <filter inkscape:collect="always" id="filter3701">
      <feGaussianBlur inkscape:collect="always" stdDeviation="1.1107392" id="feGaussianBlur3703"/>
    </filter>
    <inkscape:perspective id="perspective3724" inkscape:persp3d-origin="0.5 : 0.33333333 : 1" inkscape:vp_z="1 : 0.5 : 1" inkscape:vp_y="0 : 1000 : 0" inkscape:vp_x="0 : 0.5 : 1" sodipodi:type="inkscape:persp3d"/>
    <linearGradient inkscape:collect="always" xlink:href="#linearGradient3616-7" id="linearGradient3622-1" x1="-49.005947" y1="1025.9885" x2="-44.414112" y2="1004.0629" gradientUnits="userSpaceOnUse"/>
    <linearGradient inkscape:collect="always" id="linearGradient3616-7">
      <stop style="stop-color: rgb(0, 25, 93); stop-opacity: 1;" offset="0" id="stop3618-4"/>
      <stop style="stop-color: rgb(0, 25, 93); stop-opacity: 0;" offset="1" id="stop3620-0"/>
    </linearGradient>
    <linearGradient inkscape:collect="always" xlink:href="#linearGradient3671-4" id="linearGradient3677-9" x1="-53.70623" y1="981.66858" x2="-27.639" y2="1078.0972" gradientUnits="userSpaceOnUse"/>
    <linearGradient inkscape:collect="always" id="linearGradient3671-4">
      <stop style="stop-color: rgb(0, 51, 128); stop-opacity: 1;" offset="0" id="stop3673-8"/>
      <stop style="stop-color: rgb(0, 51, 128); stop-opacity: 0;" offset="1" id="stop3675-8"/>
    </linearGradient>
    <linearGradient inkscape:collect="always" xlink:href="#linearGradient3631-4" id="linearGradient3637-2" x1="-48.639454" y1="995.6792" x2="-44.510239" y2="1015.0291" gradientUnits="userSpaceOnUse"/>
    <linearGradient inkscape:collect="always" id="linearGradient3631-4">
      <stop style="stop-color: rgb(255, 255, 255); stop-opacity: 1;" offset="0" id="stop3633-5"/>
      <stop style="stop-color: rgb(255, 255, 255); stop-opacity: 0;" offset="1" id="stop3635-5"/>
    </linearGradient>
    <linearGradient y2="1015.0291" x2="-44.510239" y1="995.6792" x1="-48.639454" gradientUnits="userSpaceOnUse" id="linearGradient3744" xlink:href="#linearGradient3631-4" inkscape:collect="always"/>
    <linearGradient inkscape:collect="always" xlink:href="#linearGradient3616-7" id="linearGradient3799" gradientUnits="userSpaceOnUse" x1="-49.005947" y1="1025.9885" x2="-44.414112" y2="1004.0629"/>
    <linearGradient inkscape:collect="always" xlink:href="#linearGradient3671-4" id="linearGradient3801" gradientUnits="userSpaceOnUse" x1="-53.70623" y1="981.66858" x2="-27.639" y2="1078.0972"/>
    <linearGradient inkscape:collect="always" xlink:href="#linearGradient3631-4" id="linearGradient3803" gradientUnits="userSpaceOnUse" x1="-48.639454" y1="995.6792" x2="-44.510239" y2="1015.0291"/>
    <linearGradient inkscape:collect="always" xlink:href="#linearGradient3631-4" id="linearGradient3806" gradientUnits="userSpaceOnUse" x1="-48.639454" y1="995.6792" x2="-44.510239" y2="1015.0291" gradientTransform="translate(-33.1633, 38.7755)"/>
    <linearGradient inkscape:collect="always" xlink:href="#linearGradient3616-7" id="linearGradient3809" gradientUnits="userSpaceOnUse" x1="-49.005947" y1="1025.9885" x2="-44.414112" y2="1004.0629" gradientTransform="translate(-33.1633, 38.7755)"/>
    <linearGradient inkscape:collect="always" xlink:href="#linearGradient3671-4" id="linearGradient3811" gradientUnits="userSpaceOnUse" x1="-53.70623" y1="981.66858" x2="-27.639" y2="1078.0972" gradientTransform="translate(-33.1633, 38.7755)"/>
    <filter inkscape:collect="always" id="filter3830" x="-0.11555565" width="1.2311113" y="-0.057858114" height="1.1157162">
      <feGaussianBlur inkscape:collect="always" stdDeviation="0.86590833" id="feGaussianBlur3832"/>
    </filter>
    <linearGradient inkscape:collect="always" xlink:href="#linearGradient3616-7" id="linearGradient3844" gradientUnits="userSpaceOnUse" x1="-49.005947" y1="1025.9885" x2="-44.414112" y2="1004.0629"/>
    <linearGradient inkscape:collect="always" xlink:href="#linearGradient3671-4" id="linearGradient3846" gradientUnits="userSpaceOnUse" x1="-53.70623" y1="981.66858" x2="-27.639" y2="1078.0972"/>
    <linearGradient inkscape:collect="always" xlink:href="#linearGradient3631-4" id="linearGradient3848" gradientUnits="userSpaceOnUse" x1="-48.639454" y1="995.6792" x2="-44.510239" y2="1015.0291"/>
    <linearGradient inkscape:collect="always" xlink:href="#linearGradient3616-7" id="linearGradient3858" gradientUnits="userSpaceOnUse" x1="-49.005947" y1="1025.9885" x2="-44.414112" y2="1004.0629"/>
    <linearGradient inkscape:collect="always" xlink:href="#linearGradient3671-4" id="linearGradient3860" gradientUnits="userSpaceOnUse" x1="-53.70623" y1="981.66858" x2="-27.639" y2="1078.0972"/>
    <linearGradient inkscape:collect="always" xlink:href="#linearGradient3631-4" id="linearGradient3862" gradientUnits="userSpaceOnUse" x1="-48.639454" y1="995.6792" x2="-44.510239" y2="1015.0291"/>
    <linearGradient inkscape:collect="always" xlink:href="#linearGradient3616-7" id="linearGradient3871" gradientUnits="userSpaceOnUse" x1="-49.005947" y1="1025.9885" x2="-44.414112" y2="1004.0629"/>
    <linearGradient inkscape:collect="always" xlink:href="#linearGradient3671-4" id="linearGradient3873" gradientUnits="userSpaceOnUse" x1="-53.70623" y1="981.66858" x2="-27.639" y2="1078.0972"/>
    <linearGradient inkscape:collect="always" xlink:href="#linearGradient3631-4" id="linearGradient3875" gradientUnits="userSpaceOnUse" x1="-48.639454" y1="995.6792" x2="-44.510239" y2="1015.0291"/>
    <linearGradient inkscape:collect="always" xlink:href="#linearGradient3616-7" id="linearGradient3902" gradientUnits="userSpaceOnUse" x1="-49.005947" y1="1025.9885" x2="-44.414112" y2="1004.0629"/>
    <linearGradient inkscape:collect="always" xlink:href="#linearGradient3671-4" id="linearGradient3904" gradientUnits="userSpaceOnUse" x1="-53.70623" y1="981.66858" x2="-27.639" y2="1078.0972"/>
    <linearGradient inkscape:collect="always" xlink:href="#linearGradient3631-4" id="linearGradient3906" gradientUnits="userSpaceOnUse" x1="-48.639454" y1="995.6792" x2="-44.510239" y2="1015.0291"/>
    <linearGradient inkscape:collect="always" xlink:href="#linearGradient3616-7" id="linearGradient3925" gradientUnits="userSpaceOnUse" x1="-49.005947" y1="1025.9885" x2="-44.414112" y2="1004.0629"/>
    <linearGradient inkscape:collect="always" xlink:href="#linearGradient3671-4" id="linearGradient3927" gradientUnits="userSpaceOnUse" x1="-53.70623" y1="981.66858" x2="-27.639" y2="1078.0972"/>
    <linearGradient inkscape:collect="always" xlink:href="#linearGradient3631-4" id="linearGradient3929" gradientUnits="userSpaceOnUse" x1="-48.639454" y1="995.6792" x2="-44.510239" y2="1015.0291"/>
    <filter inkscape:collect="always" id="filter3967">
      <feGaussianBlur inkscape:collect="always" stdDeviation="0.93757094" id="feGaussianBlur3969"/>
    </filter>
    <linearGradient inkscape:collect="always" xlink:href="#linearGradient3616-7" id="linearGradient3985" gradientUnits="userSpaceOnUse" x1="-49.005947" y1="1025.9885" x2="-44.414112" y2="1004.0629"/>
    <linearGradient inkscape:collect="always" xlink:href="#linearGradient3671-4" id="linearGradient3987" gradientUnits="userSpaceOnUse" x1="-53.70623" y1="981.66858" x2="-27.639" y2="1078.0972"/>
    <linearGradient inkscape:collect="always" xlink:href="#linearGradient3631-4" id="linearGradient3989" gradientUnits="userSpaceOnUse" x1="-48.639454" y1="995.6792" x2="-44.510239" y2="1015.0291"/>
    <filter inkscape:collect="always" id="filter4034">
      <feGaussianBlur inkscape:collect="always" stdDeviation="0.7523968" id="feGaussianBlur4036"/>
    </filter>
  </defs>
  <sodipodi:namedview id="base" pagecolor="#ffffff" bordercolor="#666666" borderopacity="1.0" inkscape:pageopacity="0" inkscape:pageshadow="2" inkscape:zoom="3.620168" inkscape:cx="-3.6798985" inkscape:cy="38.461441" inkscape:document-units="px" inkscape:current-layer="layer1" showgrid="false" inkscape:window-width="1366" inkscape:window-height="706" inkscape:window-x="-8" inkscape:window-y="-8" inkscape:window-maximized="1"/>
  <metadata id="metadata7">
    <rdf:RDF>
      <cc:Work rdf:about="">
        <dc:format>image/svg+xml</dc:format>
        <dc:type rdf:resource="http://purl.org/dc/dcmitype/StillImage"/>
        <dc:title/>
      </cc:Work>
    </rdf:RDF>
  </metadata>
  <g inkscape:label="Capa 1" inkscape:groupmode="layer" id="layer1" transform="translate(0, -988.362)">
    <g style="stroke: rgb(0, 0, 0); filter: url(&quot;#filter4034&quot;);" id="g4018">
      <path style="fill: none; stroke: rgb(0, 0, 0); stroke-width: 1.7; stroke-linecap: butt; stroke-linejoin: miter; stroke-opacity: 1; stroke-miterlimit: 4; stroke-dasharray: none;" d="m 36.226176,1006.5853 c 0,0 6.238629,4.4913 6.238629,13.9283 0,9.4368 -6.238629,13.6254 -6.238629,13.6254 l 0,0" id="path4020" sodipodi:nodetypes="czcc"/>
      <path sodipodi:nodetypes="czcc" id="path4022" d="m 43.782672,1000.5152 c 0,0 6.806815,6.4701 6.806815,20.0649 0,13.595 -6.806815,19.629 -6.806815,19.629 l 0,0" style="fill: none; stroke: rgb(0, 0, 0); stroke-width: 1.7; stroke-linecap: butt; stroke-linejoin: miter; stroke-opacity: 1; stroke-miterlimit: 4; stroke-dasharray: none;"/>
      <path style="fill: none; stroke: rgb(0, 0, 0); stroke-width: 1.7; stroke-linecap: butt; stroke-linejoin: miter; stroke-opacity: 1; stroke-miterlimit: 4; stroke-dasharray: none;" d="m 50.505202,994.35168 c 0,0 8.638775,8.47942 8.638775,26.29622 0,17.8168 -8.638775,25.7247 -8.638775,25.7247 l 0,0" id="path4024" sodipodi:nodetypes="czcc"/>
    </g>
    <image y="996.29468" x="-86.251114" id="image2826" height="64" width="64" xlink:href="file:///C:/Users/Kristian/Desktop/inkscape_pasted_image_20110214_183307.png"/>
    <g id="g3884" transform="translate(-12)">
      <path transform="matrix(1.64789, 0, 0, 1.64789, 118.043, -702.69)" style="fill: rgb(0, 0, 0); fill-opacity: 1; stroke: none; filter: url(&quot;#filter3830&quot;);" d="m -45.100744,1027.657 c -0.269685,-0.022 -0.65124,0.133 -1.1875,0.5 -2.145041,1.4681 -9.9375,9.9688 -9.9375,9.9688 -0.06797,0 -0.121529,0.024 -0.1875,0.031 l -6.00659,0 0,14.9375 6.19409,0 c 0,0 7.654147,8.5319 9.9375,10 2.283353,1.4681 1.8125,-0.8131 1.8125,-1.8125 l 0,-31.3437 c 0,-0.7496 0.184056,-2.2145 -0.625,-2.2813 l 0,2e-4 z" id="path3793" sodipodi:nodetypes="cscccccscccc"/>
      <g transform="matrix(1.66199, 0, 0, 1.66199, 103.972, -660.538)" id="g3705">
        <path style="fill: rgb(0, 170, 212); fill-opacity: 1; stroke: none;" d="m -36.087139,993.64343 c -0.269685,-0.0222 -0.65124,0.13298 -1.1875,0.5 -2.145041,1.4681 -9.9375,9.96877 -9.9375,9.96877 -0.06797,0 -0.121529,0.024 -0.1875,0.031 l -6.00659,0 0,14.9375 6.19409,0 c 0,0 7.654147,8.5319 9.9375,10 2.283353,1.4681 1.8125,-0.8131 1.8125,-1.8125 l 0,-31.34372 c 0,-0.74962 0.184056,-2.21452 -0.625,-2.28125 l 0,2e-4 z" id="path3624" sodipodi:nodetypes="cscccccscccc"/>
        <path sodipodi:nodetypes="cscccccscccc" id="path2842" d="m -36.087139,993.64343 c -0.269685,-0.0222 -0.65124,0.13298 -1.1875,0.5 -2.145041,1.4681 -9.9375,9.96877 -9.9375,9.96877 -0.06797,0 -0.121529,0.024 -0.1875,0.031 l -6.00659,0 0,14.9375 6.19409,0 c 0,0 7.654147,8.5319 9.9375,10 2.283353,1.4681 1.8125,-0.8131 1.8125,-1.8125 l 0,-31.34372 c 0,-0.74962 0.184056,-2.21452 -0.625,-2.28125 l 0,2e-4 z" style="fill: url(&quot;#linearGradient3985&quot;) rgb(0, 0, 0); fill-opacity: 1; stroke: url(&quot;#linearGradient3987&quot;) rgb(0, 0, 0); stroke-width: 0.6; stroke-miterlimit: 4; stroke-dasharray: none;"/>
        <path sodipodi:nodetypes="csccccscccc" style="fill: url(&quot;#linearGradient3989&quot;) rgb(0, 0, 0); fill-opacity: 1; stroke: none;" d="m -36.823706,995.37407 c -0.241636,-0.0198 -0.583507,0.11916 -1.063992,0.448 -1.921941,1.31541 -9.108586,9.23893 -9.108586,9.23893 -0.0609,0 -0.108889,0.022 -0.167998,0.028 l -5.403958,0 0,9.9401 c 3.078126,-0.4691 6.350833,-1.1921 9.715924,-2.1561 2.237229,-0.641 4.458143,-1.4609 6.486278,-2.2303 l 0.102328,-13.22451 c 0,-0.67166 0.164912,-1.98419 -0.559996,-2.04399 l 0,-1.3e-4 z" id="rect2830"/>
      </g>
    </g>
    <g id="g4013" style="stroke: rgb(51, 51, 51);">
      <path sodipodi:nodetypes="czcc" id="path4005" d="m 36.226176,1006.5853 c 0,0 6.238629,4.4913 6.238629,13.9283 0,9.4368 -6.238629,13.6254 -6.238629,13.6254 l 0,0" style="fill: none; stroke: rgb(51, 51, 51); stroke-width: 1.7; stroke-linecap: butt; stroke-linejoin: miter; stroke-opacity: 1; stroke-miterlimit: 4; stroke-dasharray: none;"/>
      <path style="fill: none; stroke: rgb(51, 51, 51); stroke-width: 1.7; stroke-linecap: butt; stroke-linejoin: miter; stroke-opacity: 1; stroke-miterlimit: 4; stroke-dasharray: none;" d="m 43.782672,1000.5152 c 0,0 6.806815,6.4701 6.806815,20.0649 0,13.595 -6.806815,19.629 -6.806815,19.629 l 0,0" id="path4007" sodipodi:nodetypes="czcc"/>
      <path sodipodi:nodetypes="czcc" id="path4009" d="m 50.505202,994.35168 c 0,0 8.638775,8.47942 8.638775,26.29622 0,17.8168 -8.638775,25.7247 -8.638775,25.7247 l 0,0" style="fill: none; stroke: rgb(51, 51, 51); stroke-width: 1.7; stroke-linecap: butt; stroke-linejoin: miter; stroke-opacity: 1; stroke-miterlimit: 4; stroke-dasharray: none;"/>
    </g>
  </g>
</svg>