<?xml version="1.0" encoding="UTF-8" standalone="no"?>
<svg
   xmlns:dc="http://purl.org/dc/elements/1.1/"
   xmlns:cc="http://creativecommons.org/ns#"
   xmlns:rdf="http://www.w3.org/1999/02/22-rdf-syntax-ns#"
   xmlns:svg="http://www.w3.org/2000/svg"
   xmlns="http://www.w3.org/2000/svg"
   xmlns:sodipodi="http://sodipodi.sourceforge.net/DTD/sodipodi-0.dtd"
   xmlns:inkscape="http://www.inkscape.org/namespaces/inkscape"
   width="33cm"
   height="12cm"
   viewBox="179 77 651 225"
   id="svg4728"
   version="1.1"
   inkscape:version="0.48.0 r9654"
   sodipodi:docname="fig-16-02-git-merge-pull-2.dia">
  <metadata
     id="metadata4872">
    <rdf:RDF>
      <cc:Work
         rdf:about="">
        <dc:format>image/svg+xml</dc:format>
        <dc:type
           rdf:resource="http://purl.org/dc/dcmitype/StillImage" />
        <dc:title></dc:title>
      </cc:Work>
    </rdf:RDF>
  </metadata>
  <defs
     id="defs4870" />
  <sodipodi:namedview
     pagecolor="#ffffff"
     bordercolor="#666666"
     borderopacity="1"
     objecttolerance="10"
     gridtolerance="10"
     guidetolerance="10"
     inkscape:pageopacity="0"
     inkscape:pageshadow="2"
     inkscape:window-width="1280"
     inkscape:window-height="752"
     id="namedview4868"
     showgrid="false"
     inkscape:zoom="0.43530638"
     inkscape:cx="584.64569"
     inkscape:cy="212.59842"
     inkscape:window-x="0"
     inkscape:window-y="0"
     inkscape:window-maximized="0"
     inkscape:current-layer="svg4728" />
  <g
     id="g4730">
    <path
       style="fill: #ffff00"
       d="M 633.45 100.95 L 748.95,100.95 C 806.7,100.95 806.7,100.95 806.7,145.4 L 806.7,234.3 C 806.7,278.75 806.7,278.75 748.95,278.75 L 633.45,278.75 C 575.7,278.75 575.7,278.75 575.7,234.3 L 575.7,145.4 C 575.7,100.95 575.7,100.95 633.45,100.95z"
       id="path4732" />
    <path
       style="fill: none; fill-opacity:0; stroke-width: 2; stroke: #a0a0a0"
       d="M 633.45 100.95 L 748.95,100.95 C 806.7,100.95 806.7,100.95 806.7,145.4 L 806.7,234.3 C 806.7,278.75 806.7,278.75 748.95,278.75 L 633.45,278.75 C 575.7,278.75 575.7,278.75 575.7,234.3 L 575.7,145.4 C 575.7,100.95 575.7,100.95 633.45,100.95"
       id="path4734" />
    <text
       style="fill: #000000;text-anchor:start;font-size:12.8;font-family:sanserif;font-style:normal;font-weight:normal"
       x="597.25"
       y="120.54"
       id="text4736">
      <tspan
         x="597.25"
         y="120.54"
         id="tspan4738" />
    </text>
  </g>
  <g
     id="g4740">
    <path
       style="fill: #ffffaa"
       d="M 260.45 101.45 L 375.95,101.45 C 433.7,101.45 433.7,101.45 433.7,145.9 L 433.7,234.8 C 433.7,279.25 433.7,279.25 375.95,279.25 L 260.45,279.25 C 202.7,279.25 202.7,279.25 202.7,234.8 L 202.7,145.9 C 202.7,101.45 202.7,101.45 260.45,101.45z"
       id="path4742" />
    <path
       style="fill: none; fill-opacity:0; stroke-width: 2; stroke: #a0a0a0"
       d="M 260.45 101.45 L 375.95,101.45 C 433.7,101.45 433.7,101.45 433.7,145.9 L 433.7,234.8 C 433.7,279.25 433.7,279.25 375.95,279.25 L 260.45,279.25 C 202.7,279.25 202.7,279.25 202.7,234.8 L 202.7,145.9 C 202.7,101.45 202.7,101.45 260.45,101.45"
       id="path4744" />
    <text
       style="fill: #000000;text-anchor:start;font-size:12.8;font-family:sanserif;font-style:normal;font-weight:normal"
       x="224.25"
       y="121.04"
       id="text4746">
      <tspan
         x="224.25"
         y="121.04"
         id="tspan4748" />
    </text>
  </g>
  <text
     style="fill: #000000;text-anchor:start;font-size:12.8;font-family:sanserif;font-style:normal;font-weight:normal"
     x="256.45"
     y="269.25"
     id="text4750">
    <tspan
       x="256.45"
       y="269.25"
       id="tspan4752">用户 user1 本地版本库</tspan>
  </text>
  <text
     style="fill: #000000;text-anchor:start;font-size:12.8;font-family:sanserif;font-style:normal;font-weight:normal"
     x="674.15"
     y="268.75"
     id="text4754">
    <tspan
       x="674.15"
       y="268.75"
       id="tspan4756">共享版本库</tspan>
  </text>
  <g
     id="g4758">
    <line
       style="fill: none; fill-opacity:0; stroke-width: 4; stroke: #ff0000"
       x1="447.048"
       y1="186.125"
       x2="573.576"
       y2="186.125"
       id="line4760" />
    <polygon
       style="fill: #ff0000"
       points="439.548,186.125 449.548,181.125 447.048,186.125 449.548,191.125 "
       id="polygon4762" />
    <polygon
       style="fill: none; fill-opacity:0; stroke-width: 4; stroke: #ff0000"
       points="439.548,186.125 449.548,181.125 447.048,186.125 449.548,191.125 "
       id="polygon4764" />
  </g>
  <text
     style="fill: #000000;text-anchor:start;font-size:15.8044;font-family:sanserif;font-style:normal;font-weight:normal"
     x="472.95"
     y="176.5"
     id="text4766">
    <tspan
       x="472.95"
       y="176.5"
       id="tspan4768">git fetch</tspan>
  </text>
  <ellipse
     sodipodi:ry="12.6265"
     sodipodi:rx="13.078"
     sodipodi:cy="164.02699"
     sodipodi:cx="332.67801"
     id="ellipse4772"
     ry="12.6265"
     rx="13.078"
     cy="164.02699"
     cx="332.67801"
     style="fill:#ffffff" />
  <ellipse
     sodipodi:ry="12.6265"
     sodipodi:rx="13.078"
     sodipodi:cy="164.02699"
     sodipodi:cx="332.67801"
     id="ellipse4774"
     ry="12.6265"
     rx="13.078"
     cy="164.02699"
     cx="332.67801"
     style="fill:none;stroke:#000000;stroke-width:2;stroke-dasharray:4" />
  <text
     id="text4776"
     y="168.15544"
     x="332.67801"
     style="font-size:14.1111002px;font-style:normal;font-weight:normal;text-anchor:middle;fill:#000000;font-family:monospace">
    <tspan
       id="tspan4778"
       y="168.15544"
       x="332.67801">B</tspan>
  </text>
  <ellipse
     sodipodi:ry="12.6265"
     sodipodi:rx="13.078"
     sodipodi:cy="164.02699"
     sodipodi:cx="233.67799"
     id="ellipse4782"
     ry="12.6265"
     rx="13.078"
     cy="164.02699"
     cx="233.67799"
     style="fill:#ffffff" />
  <ellipse
     sodipodi:ry="12.6265"
     sodipodi:rx="13.078"
     sodipodi:cy="164.02699"
     sodipodi:cx="233.67799"
     id="ellipse4784"
     ry="12.6265"
     rx="13.078"
     cy="164.02699"
     cx="233.67799"
     style="fill:none;stroke:#000000;stroke-width:2" />
  <text
     id="text4786"
     y="168.15544"
     x="233.67799"
     style="font-size:14.1111002px;font-style:normal;font-weight:normal;text-anchor:middle;fill:#000000;font-family:monospace">
    <tspan
       id="tspan4788"
       y="168.15544"
       x="233.67799">A</tspan>
  </text>
  <line
     style="fill: none; fill-opacity:0; stroke-width: 2; stroke-dasharray: 4; stroke: #000000"
     x1="246.756"
     y1="164.027"
     x2="319.6"
     y2="164.027"
     id="line4790" />
  <line
     style="fill: none; fill-opacity:0; stroke-width: 2; stroke: #000000"
     x1="242.926"
     y1="172.955"
     x2="278.696"
     y2="210.494"
     id="line4792" />
  <ellipse
     sodipodi:ry="12.6265"
     sodipodi:rx="13.078"
     sodipodi:cy="215.327"
     sodipodi:cx="290.77802"
     id="ellipse4796"
     ry="12.6265"
     rx="13.078"
     cy="215.327"
     cx="290.77802"
     style="fill:#ffffff" />
  <ellipse
     sodipodi:ry="12.6265"
     sodipodi:rx="13.078"
     sodipodi:cy="215.327"
     sodipodi:cx="290.77802"
     id="ellipse4798"
     ry="12.6265"
     rx="13.078"
     cy="215.327"
     cx="290.77802"
     style="fill:none;stroke:#000000;stroke-width:2" />
  <text
     id="text4800"
     y="219.45544"
     x="290.77802"
     style="font-size:14.1111002px;font-style:normal;font-weight:normal;text-anchor:middle;fill:#000000;font-family:monospace">
    <tspan
       id="tspan4802"
       y="219.45544"
       x="290.77802">C</tspan>
  </text>
  <g
     id="g4804">
    <path
       style="fill: #ff0000"
       d="M 279.95 120.2 L 295.75,120.2 L 295.75,134.9 L 287.85,138.575 L 279.95,134.9 L 279.95,120.2z"
       id="path4806" />
    <path
       style="fill: none; fill-opacity:0; stroke-width: 2; stroke: #000000"
       d="M 279.95 120.2 L 295.75,120.2 L 295.75,134.9 L 287.85,138.575 L 279.95,134.9 L 279.95,120.2"
       id="path4808" />
    <text
       style="fill: #000000;text-anchor:middle;font-size:10.16;font-family:monospace;font-style:normal;font-weight:700"
       x="287.85"
       y="130.725"
       id="text4810">
      <tspan
         x="287.85"
         y="130.725"
         id="tspan4812" />
    </text>
  </g>
  <text
     style="fill: #000000;text-anchor:start;font-size:9.03111;font-family:serif;font-style:normal;font-weight:normal"
     x="273.75"
     y="114.5"
     id="text4814">
    <tspan
       x="273.75"
       y="114.5"
       id="tspan4816">master</tspan>
  </text>
  <ellipse
     sodipodi:ry="12.6265"
     sodipodi:rx="13.078"
     sodipodi:cy="163.52699"
     sodipodi:cx="707.37799"
     id="ellipse4820"
     ry="12.6265"
     rx="13.078"
     cy="163.52699"
     cx="707.37799"
     style="fill:#ffffff" />
  <ellipse
     sodipodi:ry="12.6265"
     sodipodi:rx="13.078"
     sodipodi:cy="163.52699"
     sodipodi:cx="707.37799"
     id="ellipse4822"
     ry="12.6265"
     rx="13.078"
     cy="163.52699"
     cx="707.37799"
     style="fill:none;stroke:#000000;stroke-width:2" />
  <text
     id="text4824"
     y="167.65544"
     x="707.37799"
     style="font-size:14.1111002px;font-style:normal;font-weight:normal;text-anchor:middle;fill:#000000;font-family:monospace">
    <tspan
       id="tspan4826"
       y="167.65544"
       x="707.37799">B</tspan>
  </text>
  <ellipse
     sodipodi:ry="12.6265"
     sodipodi:rx="13.078"
     sodipodi:cy="163.52699"
     sodipodi:cx="608.37799"
     id="ellipse4830"
     ry="12.6265"
     rx="13.078"
     cy="163.52699"
     cx="608.37799"
     style="fill:#ffffff" />
  <ellipse
     sodipodi:ry="12.6265"
     sodipodi:rx="13.078"
     sodipodi:cy="163.52699"
     sodipodi:cx="608.37799"
     id="ellipse4832"
     ry="12.6265"
     rx="13.078"
     cy="163.52699"
     cx="608.37799"
     style="fill:none;stroke:#000000;stroke-width:2" />
  <text
     id="text4834"
     y="167.65544"
     x="608.37799"
     style="font-size:14.1111002px;font-style:normal;font-weight:normal;text-anchor:middle;fill:#000000;font-family:monospace">
    <tspan
       id="tspan4836"
       y="167.65544"
       x="608.37799">A</tspan>
  </text>
  <line
     style="fill: none; fill-opacity:0; stroke-width: 2; stroke: #000000"
     x1="621.456"
     y1="163.527"
     x2="694.3"
     y2="163.527"
     id="line4838" />
  <g
     id="g4840">
    <path
       style="fill: #0000ff"
       d="M 699.65 119.7 L 715.45,119.7 L 715.45,134.4 L 707.55,138.075 L 699.65,134.4 L 699.65,119.7z"
       id="path4842" />
    <path
       style="fill: none; fill-opacity:0; stroke-width: 2; stroke: #000000"
       d="M 699.65 119.7 L 715.45,119.7 L 715.45,134.4 L 707.55,138.075 L 699.65,134.4 L 699.65,119.7"
       id="path4844" />
    <text
       style="fill: #000000;text-anchor:middle;font-size:10.16;font-family:monospace;font-style:normal;font-weight:700"
       x="707.55"
       y="130.225"
       id="text4846">
      <tspan
         x="707.55"
         y="130.225"
         id="tspan4848" />
    </text>
  </g>
  <text
     style="fill: #000000;text-anchor:start;font-size:9.03111;font-family:serif;font-style:normal;font-weight:normal"
     x="693.45"
     y="114"
     id="text4850">
    <tspan
       x="693.45"
       y="114"
       id="tspan4852">master</tspan>
  </text>
  <g
     id="g4854">
    <path
       style="fill: #0000ff"
       d="M 324.302 119.8 L 340.102,119.8 L 340.102,134.5 L 332.202,138.175 L 324.302,134.5 L 324.302,119.8z"
       id="path4856" />
    <path
       style="fill: none; fill-opacity:0; stroke-width: 2; stroke-dasharray: 4; stroke: #000000"
       d="M 324.302 119.8 L 340.102,119.8 L 340.102,134.5 L 332.202,138.175 L 324.302,134.5 L 324.302,119.8"
       id="path4858" />
    <text
       style="fill: #000000;text-anchor:middle;font-size:10.16;font-family:monospace;font-style:normal;font-weight:700"
       x="332.202"
       y="130.325"
       id="text4860">
      <tspan
         x="332.202"
         y="130.325"
         id="tspan4862" />
    </text>
  </g>
  <text
     style="fill: #000000;text-anchor:start;font-size:9.03111;font-family:serif;font-style:normal;font-weight:normal"
     x="313.102"
     y="114.1"
     id="text4864">
    <tspan
       x="313.102"
       y="114.1"
       id="tspan4866">origin/master</tspan>
  </text>
</svg>
