<?xml version="1.0" encoding="UTF-8" standalone="no"?>
<svg
   xmlns:dc="http://purl.org/dc/elements/1.1/"
   xmlns:cc="http://creativecommons.org/ns#"
   xmlns:rdf="http://www.w3.org/1999/02/22-rdf-syntax-ns#"
   xmlns:svg="http://www.w3.org/2000/svg"
   xmlns="http://www.w3.org/2000/svg"
   xmlns:sodipodi="http://sodipodi.sourceforge.net/DTD/sodipodi-0.dtd"
   xmlns:inkscape="http://www.inkscape.org/namespaces/inkscape"
   width="34cm"
   height="27cm"
   viewBox="453 93 662 539"
   id="svg4472"
   version="1.1"
   inkscape:version="0.48.0 r9654"
   sodipodi:docname="fig-06-02-git-repos-detail.svg">
  <metadata
     id="metadata4914">
    <rdf:RDF>
      <cc:Work
         rdf:about="">
        <dc:format>image/svg+xml</dc:format>
        <dc:type
           rdf:resource="http://purl.org/dc/dcmitype/StillImage" />
      </cc:Work>
    </rdf:RDF>
  </metadata>
  <defs
     id="defs4912" />
  <sodipodi:namedview
     pagecolor="#ffffff"
     bordercolor="#666666"
     borderopacity="1"
     objecttolerance="10"
     gridtolerance="10"
     guidetolerance="10"
     inkscape:pageopacity="0"
     inkscape:pageshadow="2"
     inkscape:window-width="1280"
     inkscape:window-height="752"
     id="namedview4910"
     showgrid="false"
     showguides="true"
     inkscape:guide-bbox="true"
     inkscape:zoom="0.77459327"
     inkscape:cx="454.8613"
     inkscape:cy="328.56704"
     inkscape:window-x="0"
     inkscape:window-y="0"
     inkscape:window-maximized="1"
     inkscape:current-layer="svg4472" />
  <g
     id="g4474">
    <path
       style="fill: #afc2da"
       d="M 629.75 116.5 L 937.25,116.5 C 1091,116.5 1091,116.5 1091,239.57 L 1091,485.709 C 1091,608.779 1091,608.779 937.25,608.779 L 629.75,608.779 C 476,608.779 476,608.779 476,485.709 L 476,239.57 C 476,116.5 476,116.5 629.75,116.5z"
       id="path4476" />
    <path
       style="fill: none; fill-opacity:0; stroke-width: 2; stroke: #333333"
       d="M 629.75 116.5 L 937.25,116.5 C 1091,116.5 1091,116.5 1091,239.57 L 1091,485.709 C 1091,608.779 1091,608.779 937.25,608.779 L 629.75,608.779 C 476,608.779 476,608.779 476,485.709 L 476,239.57 C 476,116.5 476,116.5 629.75,116.5"
       id="path4478" />
    <text
       style="fill: #000000;text-anchor:start;font-size:12.8;font-family:sanserif;font-style:normal;font-weight:normal"
       x="516.75"
       y="151.814"
       id="text4480">
      <tspan
         x="516.75"
         y="151.814"
         id="tspan4482" />
    </text>
  </g>
  <g
     id="g4484">
    <path
       style="fill: #facca7"
       d="M 620.333 168.029 L 765.667,168.029 C 785.733,168.029 802,192.206 802,222.029 C 802,251.852 785.733,276.029 765.667,276.029 L 620.333,276.029 C 600.267,276.029 584,251.852 584,222.029 C 584,192.206 600.267,168.029 620.333,168.029z"
       id="path4486" />
    <path
       style="fill: none; fill-opacity:0; stroke-width: 2; stroke: #333333"
       d="M 620.333 168.029 L 765.667,168.029 C 785.733,168.029 802,192.206 802,222.029 C 802,251.852 785.733,276.029 765.667,276.029 L 620.333,276.029 C 600.267,276.029 584,251.852 584,222.029 C 584,192.206 600.267,168.029 620.333,168.029"
       id="path4488" />
    <text
       style="fill: #000000;text-anchor:middle;font-size:12.8;font-family:sanserif;font-style:normal;font-weight:normal"
       x="693"
       y="226.029"
       id="text4490">
      <tspan
         x="693"
         y="226.029"
         id="tspan4492" />
    </text>
  </g>
  <g
     id="g4494">
    <polygon
       style="fill: #d9d9d9"
       points="874,171.5 878.53,171.5 886.08,151.5 934.4,151.5 941.95,171.5 1017.45,171.5 1025,177.276 1025,287.029 874,287.029 "
       id="polygon4496" />
    <polygon
       style="fill: none; fill-opacity:0; stroke-width: 2; stroke: #333333"
       points="874,171.5 878.53,171.5 886.08,151.5 934.4,151.5 941.95,171.5 1017.45,171.5 1025,177.276 1025,287.029 874,287.029 "
       id="polygon4498" />
    <text
       style="fill: #000000;text-anchor:start;font-size:12.8;font-family:sanserif;font-style:normal;font-weight:normal"
       x="884"
       y="182.2"
       id="text4500">
      <tspan
         x="884"
         y="182.2"
         id="tspan4502" />
    </text>
  </g>
  <text
     style="fill: #000000;text-anchor:start;font-size:12.8;font-family:方正大黑_GBK;font-style:normal;font-weight:normal"
     x="888.7"
     y="169.1"
     id="text4504">
    <tspan
       x="888.7"
       y="169.1"
       id="tspan4506">暂存区</tspan>
  </text>
  <g
     id="g4508">
    <path
       style="fill: #ffffff"
       d="M 499.35 173 L 554,173 L 554,201.823 L 526.675,209.029 L 499.35,201.823 L 499.35,173z"
       id="path4510" />
    <path
       style="fill: none; fill-opacity:0; stroke-width: 2; stroke: #000000"
       d="M 499.35 173 L 554,173 L 554,201.823 L 526.675,209.029 L 499.35,201.823 L 499.35,173"
       id="path4512" />
    <text
       style="fill: #000000;text-anchor:middle;font-size:14.1111;font-family:方正大黑_GBK;font-style:normal;font-weight:normal"
       x="526.675"
       y="191.821"
       id="text4514">
      <tspan
         x="526.675"
         y="191.821"
         id="tspan4516">HEAD</tspan>
    </text>
  </g>
  <g
     id="g4518">
    <line
       style="fill: none; fill-opacity:0; stroke-width: 2; stroke: #333333"
       x1="905.876"
       y1="208"
       x2="905.876"
       y2="262.312"
       id="line4520" />
    <line
       style="fill: none; fill-opacity:0; stroke-width: 2; stroke: #333333"
       x1="905.876"
       y1="218.25"
       x2="924.5"
       y2="218.25"
       id="line4522" />
    <line
       style="fill: none; fill-opacity:0; stroke-width: 2; stroke: #333333"
       x1="905.876"
       y1="236.75"
       x2="925"
       y2="236.75"
       id="line4524" />
    <line
       style="fill: none; fill-opacity:0; stroke-width: 2; stroke: #333333"
       x1="905.876"
       y1="255.25"
       x2="925.5"
       y2="255.25"
       id="line4526" />
  </g>
  <g
     id="g4528">
    <path
       style="fill: #e6e6e6"
       d="M 896.923 190.9 C 896.923,187.375 896.923,187.375 899.47,187.375 C 902.017,187.375 902.017,187.375 904.564,187.375 C 907.11,187.375 907.11,187.375 907.11,190.9 C 907.11,190.9 914.751,190.9 914.751,190.9 C 914.751,190.9 914.751,205 914.751,205 C 914.751,205 896.923,205 896.923,205 C 896.923,205 896.923,194.425 896.923,190.9z"
       id="path4530" />
    <path
       style="fill: none; fill-opacity:0; stroke-width: 2; stroke: #333333"
       d="M 896.923 190.9 C 896.923,187.375 896.923,187.375 899.47,187.375 C 902.017,187.375 902.017,187.375 904.564,187.375 C 907.11,187.375 907.11,187.375 907.11,190.9 C 907.11,190.9 914.751,190.9 914.751,190.9 C 914.751,190.9 914.751,205 914.751,205 C 914.751,205 896.923,205 896.923,205 C 896.923,205 896.923,194.425 896.923,190.9"
       id="path4532" />
    <path
       style="fill: none; fill-opacity:0; stroke-width: 0.2; stroke: #333333"
       d="M 896.923 190.9 C 896.923,187.375 896.923,187.375 899.47,187.375 C 902.017,187.375 902.017,187.375 904.564,187.375 C 907.11,187.375 907.11,187.375 907.11,190.9 C 907.11,190.9 914.751,190.9 914.751,190.9 C 914.751,190.9 914.751,205 914.751,205 C 914.751,205 896.923,205 896.923,205 C 896.923,205 896.923,194.425 896.923,190.9"
       id="path4534" />
    <polygon
       style="fill: #ffffff"
       points="896.923,205 894.376,192.663 912.204,192.663 914.751,205 "
       id="polygon4536" />
    <polygon
       style="fill: none; fill-opacity:0; stroke-width: 2; stroke: #333333"
       points="896.923,205 894.376,192.663 912.204,192.663 914.751,205 "
       id="polygon4538" />
    <polygon
       style="fill: none; fill-opacity:0; stroke-width: 0.2; stroke: #333333"
       points="896.923,205 894.376,192.663 912.204,192.663 914.751,205 "
       id="polygon4540" />
    <text
       style="fill: #000000;text-anchor:middle;font-size:1.6;font-family:sanserif;font-style:normal;font-weight:normal"
       x="904.564"
       y="197.569"
       id="text4542">
      <tspan
         x="904.564"
         y="197.569"
         id="tspan4544" />
    </text>
  </g>
  <g
     id="g4546">
    <polygon
       style="fill: #ffffff"
       points="929.876,210.626 937.01,210.626 939.389,213.004 939.389,222.517 929.876,222.517 "
       id="polygon4548" />
    <polygon
       style="fill: none; fill-opacity:0; stroke-width: 2; stroke: #333333"
       points="929.876,210.626 937.01,210.626 939.389,213.004 939.389,222.517 929.876,222.517 "
       id="polygon4550" />
    <polyline
       style="fill: none; fill-opacity:0; stroke-width: 2; stroke: #333333"
       points="937.01,210.626 937.01,213.004 939.389,213.004 939.389,213.004 "
       id="polyline4552" />
  </g>
  <g
     id="g4554">
    <polygon
       style="fill: #ffffff"
       points="931.35,231.1 938.484,231.1 940.863,233.478 940.863,242.991 931.35,242.991 "
       id="polygon4556" />
    <polygon
       style="fill: none; fill-opacity:0; stroke-width: 2; stroke: #333333"
       points="931.35,231.1 938.484,231.1 940.863,233.478 940.863,242.991 931.35,242.991 "
       id="polygon4558" />
    <polyline
       style="fill: none; fill-opacity:0; stroke-width: 2; stroke: #333333"
       points="938.484,231.1 938.484,233.478 940.863,233.478 940.863,233.478 "
       id="polyline4560" />
  </g>
  <g
     id="g4562">
    <polygon
       style="fill: #ffffff"
       points="931.85,250.6 938.984,250.6 941.363,252.978 941.363,262.491 931.85,262.491 "
       id="polygon4564" />
    <polygon
       style="fill: none; fill-opacity:0; stroke-width: 2; stroke: #333333"
       points="931.85,250.6 938.984,250.6 941.363,252.978 941.363,262.491 931.85,262.491 "
       id="polygon4566" />
    <polyline
       style="fill: none; fill-opacity:0; stroke-width: 2; stroke: #333333"
       points="938.984,250.6 938.984,252.978 941.363,252.978 941.363,252.978 "
       id="polyline4568" />
  </g>
  <text
     style="fill: #000000;text-anchor:start;font-size:18.0622;font-family:方正大黑_GBK;font-style:normal;font-weight:normal"
     x="498.7"
     y="147.5"
     id="text4570">
    <tspan
       x="498.7"
       y="147.5"
       id="tspan4572">版本库</tspan>
  </text>
  <g
     id="g4574">
    <path
       style="fill: #ffff00"
       d="M 646.5 324.778 L 925.5,324.778 C 1065,324.778 1065,324.778 1065,390.528 L 1065,522.028 C 1065,587.778 1065,587.778 925.5,587.778 L 646.5,587.778 C 507,587.778 507,587.778 507,522.028 L 507,390.528 C 507,324.778 507,324.778 646.5,324.778z"
       id="path4576" />
    <path
       style="fill: none; fill-opacity:0; stroke-width: 2; stroke: #333333"
       d="M 646.5 324.778 L 925.5,324.778 C 1065,324.778 1065,324.778 1065,390.528 L 1065,522.028 C 1065,587.778 1065,587.778 925.5,587.778 L 646.5,587.778 C 507,587.778 507,587.778 507,522.028 L 507,390.528 C 507,324.778 507,324.778 646.5,324.778"
       id="path4578" />
    <text
       style="fill: #000000;text-anchor:start;font-size:12.8;font-family:sanserif;font-style:normal;font-weight:normal"
       x="544.9"
       y="348.628"
       id="text4580">
      <tspan
         x="544.9"
         y="348.628"
         id="tspan4582" />
    </text>
  </g>
  <rect
     style="fill:#ffffff;stroke:#333333;stroke-width:2.000067;stroke-miterlimit:4;stroke-dasharray:none"
     x="542.15198"
     y="473.53253"
     width="153.13411"
     height="20"
     id="rect5718" />
  <text
     style="fill: #000000;text-anchor:start;font-size:18.0622;font-family:黑体;font-style:normal;font-weight:normal"
     x="850.852"
     y="348.838"
     id="text4584">
    <tspan
       x="850.852"
       y="348.838"
       id="tspan4586">对象库 (.git/objects) </tspan>
  </text>
  <text
     style="fill: #000000;text-anchor:start;font-size:12.8;font-family:sanserif;font-style:normal;font-weight:normal"
     x="618.73"
     y="441.712"
     id="text4588">
    <tspan
       x="618.73"
       y="441.712"
       id="tspan4590" />
  </text>
  <rect
     id="rect4596"
     height="20"
     width="153.13411"
     y="351.33801"
     x="542.15198"
     style="fill:#ffffff;stroke:#333333;stroke-width:2.00006703999999980;stroke-miterlimit:4;stroke-dasharray:none" />
  <text
     id="text4598"
     y="367.33801"
     x="618.43152"
     style="font-size:12.80000019px;font-style:normal;font-weight:700;text-anchor:middle;fill:#000000;font-family:sanserif">COMMIT</text>
  <g
     id="g4748"
     transform="translate(4.5071932,21.409165)">
    <polyline
       style="fill:none;stroke:#0000ff;stroke-width:2"
       points="575.652,400.338 661.326,400.338 661.326,382.778 737.264,382.778 "
       id="polyline4750" />
    <polygon
       style="fill:#0000ff"
       points="734.764,377.778 744.764,382.778 734.764,387.778 737.264,382.778 "
       id="polygon4752" />
    <polygon
       style="fill:none;stroke:#0000ff;stroke-width:2"
       points="734.764,377.778 744.764,382.778 734.764,387.778 737.264,382.778 "
       id="polygon4754" />
  </g>
  <rect
     id="rect4602"
     height="76"
     width="153.13411"
     y="371.33801"
     x="542.15198"
     style="fill:#ffffff;stroke:#333333;stroke-width:2.00006703999999980;stroke-miterlimit:4;stroke-dasharray:none" />
  <ellipse
     sodipodi:ry="2"
     sodipodi:rx="2"
     sodipodi:cy="382.33801"
     sodipodi:cx="547.15198"
     id="ellipse4604"
     ry="2"
     rx="2"
     cy="382.33801"
     cx="547.15198"
     style="fill:none;stroke:#333333;stroke-width:0.2" />
  <text
     id="text4606"
     y="389.33801"
     x="551.15198"
     style="font-size:14.39999962px;font-style:normal;font-weight:normal;text-anchor:start;fill:#000000;font-family:monospace">Id</text>
  <text
     id="text4608"
     y="389.33801"
     x="611.47711"
     style="font-size:14.39999962px;font-style:normal;font-weight:normal;text-anchor:start;fill:#000000;font-family:monospace">e695606</text>
  <ellipse
     sodipodi:ry="2"
     sodipodi:rx="2"
     sodipodi:cy="400.33801"
     sodipodi:cx="547.15198"
     id="ellipse4610"
     ry="2"
     rx="2"
     cy="400.33801"
     cx="547.15198"
     style="fill:none;stroke:#333333;stroke-width:0.2" />
  <text
     id="text4612"
     y="407.33801"
     x="551.15198"
     style="font-size:14.39999962px;font-style:normal;font-weight:normal;text-anchor:start;fill:#000000;font-family:monospace">Tree</text>
  <text
     id="text4614"
     y="407.33801"
     x="611.47711"
     style="font-size:14.39999962px;font-style:normal;font-weight:normal;text-anchor:start;fill:#000000;font-family:monospace">f58da9a</text>
  <ellipse
     sodipodi:ry="2"
     sodipodi:rx="2"
     sodipodi:cy="418.33801"
     sodipodi:cx="547.15198"
     id="ellipse4616"
     ry="2"
     rx="2"
     cy="418.33801"
     cx="547.15198"
     style="fill:none;stroke:#333333;stroke-width:0.2" />
  <text
     id="text4618"
     y="425.33801"
     x="551.15198"
     style="font-size:14.39999962px;font-style:normal;font-weight:normal;text-anchor:start;fill:#000000;font-family:monospace">Parent</text>
  <text
     id="text4620"
     y="425.33801"
     x="611.47711"
     style="font-size:14.39999962px;font-style:normal;font-weight:normal;text-anchor:start;fill:#000000;font-family:monospace">a0c641e</text>
  <ellipse
     sodipodi:ry="2"
     sodipodi:rx="2"
     sodipodi:cy="436.33801"
     sodipodi:cx="547.15198"
     id="ellipse4622"
     ry="2"
     rx="2"
     cy="436.33801"
     cx="547.15198"
     style="fill:none;stroke:#333333;stroke-width:0.2" />
  <text
     id="text4624"
     y="443.33801"
     x="551.15198"
     style="font-size:14.39999962px;font-style:normal;font-weight:normal;text-anchor:start;fill:#000000;font-family:monospace">Author</text>
  <text
     id="text4626"
     y="443.33801"
     x="611.47711"
     style="font-size:14.39999962px;font-style:normal;font-weight:normal;text-anchor:start;fill:#000000;font-family:monospace">Jiang Xin</text>
  <text
     id="text4634"
     y="488.78799"
     x="618.43152"
     style="font-size:12.80000019px;font-style:normal;font-weight:700;text-anchor:middle;fill:#000000;font-family:sanserif">COMMIT</text>
  <g
     id="g4886">
    <polyline
       style="fill: none; fill-opacity:0; stroke-width: 2; stroke: #0000ff"
       points="575.652,521.788 663.826,521.788 663.826,524.028 742.264,524.028 "
       id="polyline4888" />
    <polygon
       style="fill: #0000ff"
       points="749.764,524.028 739.764,529.028 742.264,524.028 739.764,519.028 "
       id="polygon4890" />
    <polygon
       style="fill: none; fill-opacity:0; stroke-width: 2; stroke: #0000ff"
       points="749.764,524.028 739.764,529.028 742.264,524.028 739.764,519.028 "
       id="polygon4892" />
  </g>
  <rect
     style="fill:#ffffff;stroke:#333333;stroke-width:2.000067;stroke-miterlimit:4;stroke-dasharray:none"
     x="542.15198"
     y="493.53253"
     width="153.13411"
     height="76"
     id="rect5720" />
  <ellipse
     sodipodi:ry="2"
     sodipodi:rx="2"
     sodipodi:cy="503.78799"
     sodipodi:cx="547.15198"
     id="ellipse4640"
     ry="2"
     rx="2"
     cy="503.78799"
     cx="547.15198"
     style="fill:none;stroke:#333333;stroke-width:0.2" />
  <text
     id="text4642"
     y="510.78799"
     x="551.15198"
     style="font-size:14.39999962px;font-style:normal;font-weight:normal;text-anchor:start;fill:#000000;font-family:monospace">Id</text>
  <text
     id="text4644"
     y="510.78799"
     x="611.30835"
     style="font-size:14.39999962px;font-style:normal;font-weight:normal;text-anchor:start;fill:#000000;font-family:monospace">a0c641e</text>
  <ellipse
     sodipodi:ry="2"
     sodipodi:rx="2"
     sodipodi:cy="521.78802"
     sodipodi:cx="547.15198"
     id="ellipse4646"
     ry="2"
     rx="2"
     cy="521.78802"
     cx="547.15198"
     style="fill:none;stroke:#333333;stroke-width:0.2" />
  <text
     id="text4648"
     y="528.78802"
     x="551.15198"
     style="font-size:14.39999962px;font-style:normal;font-weight:normal;text-anchor:start;fill:#000000;font-family:monospace">Tree</text>
  <text
     id="text4650"
     y="528.78802"
     x="610.51385"
     style="font-size:14.39999962px;font-style:normal;font-weight:normal;text-anchor:start;fill:#000000;font-family:monospace">190d840</text>
  <ellipse
     sodipodi:ry="2"
     sodipodi:rx="2"
     sodipodi:cy="539.78802"
     sodipodi:cx="547.15198"
     id="ellipse4652"
     ry="2"
     rx="2"
     cy="539.78802"
     cx="547.15198"
     style="fill:none;stroke:#333333;stroke-width:0.2" />
  <text
     id="text4654"
     y="546.78802"
     x="551.15198"
     style="font-size:14.39999962px;font-style:normal;font-weight:normal;text-anchor:start;fill:#000000;font-family:monospace">Parent</text>
  <text
     id="text4656"
     y="546.78802"
     x="611.35052"
     style="font-size:14.39999962px;font-style:normal;font-weight:normal;text-anchor:start;fill:#000000;font-family:monospace">9e8a761</text>
  <ellipse
     sodipodi:ry="2"
     sodipodi:rx="2"
     sodipodi:cy="557.78802"
     sodipodi:cx="547.15198"
     id="ellipse4658"
     ry="2"
     rx="2"
     cy="557.78802"
     cx="547.15198"
     style="fill:none;stroke:#333333;stroke-width:0.2" />
  <text
     id="text4660"
     y="564.78802"
     x="551.15198"
     style="font-size:14.39999962px;font-style:normal;font-weight:normal;text-anchor:start;fill:#000000;font-family:monospace">Author</text>
  <text
     id="text4662"
     y="564.78802"
     x="611.47711"
     style="font-size:14.39999962px;font-style:normal;font-weight:normal;text-anchor:start;fill:#000000;font-family:monospace">Jiang Xin</text>
  <g
     id="g4664">
    <polyline
       style="fill: none; fill-opacity:0; stroke-width: 2; stroke: #0000ff"
       points="542.152,418.338 520,418.338 520,503.788 532.416,503.788 "
       id="polyline4666" />
    <polygon
       style="fill: #0000ff"
       points="539.916,503.788 529.916,508.788 532.416,503.788 529.916,498.788 "
       id="polygon4668" />
    <polygon
       style="fill: none; fill-opacity:0; stroke-width: 2; stroke: #0000ff"
       points="539.916,503.788 529.916,508.788 532.416,503.788 529.916,498.788 "
       id="polygon4670" />
  </g>
  <g
     id="g4672">
    <path
       style="fill: #ffffff"
       d="M 935.15 376.4 L 1046.15,376.4 L 1046.15,453.543 C 1023.95,440.686 1012.85,440.686 990.65,453.543 C 968.45,466.4 957.35,466.4 935.15,453.543 L 935.15,376.4z"
       id="path4674" />
    <path
       style="fill: none; fill-opacity:0; stroke-width: 2; stroke: #333333"
       d="M 935.15 376.4 L 1046.15,376.4 L 1046.15,453.543 C 1023.95,440.686 1012.85,440.686 990.65,453.543 C 968.45,466.4 957.35,466.4 935.15,453.543 L 935.15,376.4"
       id="path4676" />
    <text
       style="fill: #000000;text-anchor:middle;font-size:12.8;font-family:sanserif;font-style:normal;font-weight:normal"
       x="990.65"
       y="412.543"
       id="text4678">
      <tspan
         x="990.65"
         y="412.543"
         id="tspan4680" />
    </text>
  </g>
  <g
     id="g4682">
    <polygon
       style="fill: #ffffff"
       points="751.902,370.588 756.132,370.588 763.182,350.588 808.301,350.588 815.351,370.588 885.85,370.588 892.9,375.304 892.9,464.901 751.902,464.901 "
       id="polygon4684" />
    <polygon
       style="fill: none; fill-opacity:0; stroke-width: 2; stroke: #333333"
       points="751.902,370.588 756.132,370.588 763.182,350.588 808.301,350.588 815.351,370.588 885.85,370.588 892.9,375.304 892.9,464.901 751.902,464.901 "
       id="polygon4686" />
    <text
       style="fill: #000000;text-anchor:start;font-size:12.8;font-family:sanserif;font-style:normal;font-weight:normal"
       x="761.902"
       y="381.288"
       id="text4688">
      <tspan
         x="761.902"
         y="381.288"
         id="tspan4690" />
    </text>
  </g>
  <text
     style="fill: #000000;text-anchor:start;font-size:14.1111;font-family:sanserif;font-style:normal;font-weight:700"
     x="769.602"
     y="365.188"
     id="text4692">
    <tspan
       x="769.602"
       y="365.188"
       id="tspan4694">tree</tspan>
  </text>
  <g
     id="g4696">
    <line
       style="fill: none; fill-opacity:0; stroke-width: 2; stroke: #333333"
       x1="776.773"
       y1="428.088"
       x2="776.905"
       y2="457.15"
       id="line4698" />
    <line
       style="fill: none; fill-opacity:0; stroke-width: 2; stroke: #333333"
       x1="776.816"
       y1="437.488"
       x2="794.278"
       y2="437.409"
       id="line4700" />
  </g>
  <g
     id="g4702">
    <path
       style="fill: #e6e6e6"
       d="M 767.825 410.987 C 767.825,407.462 767.825,407.462 770.372,407.462 C 772.919,407.462 772.919,407.462 775.466,407.462 C 778.012,407.462 778.012,407.462 778.012,410.987 C 778.012,410.987 785.653,410.987 785.653,410.987 C 785.653,410.987 785.653,425.087 785.653,425.087 C 785.653,425.087 767.825,425.087 767.825,425.087 C 767.825,425.087 767.825,414.512 767.825,410.987z"
       id="path4704" />
    <path
       style="fill: none; fill-opacity:0; stroke-width: 2; stroke: #333333"
       d="M 767.825 410.987 C 767.825,407.462 767.825,407.462 770.372,407.462 C 772.919,407.462 772.919,407.462 775.466,407.462 C 778.012,407.462 778.012,407.462 778.012,410.987 C 778.012,410.987 785.653,410.987 785.653,410.987 C 785.653,410.987 785.653,425.087 785.653,425.087 C 785.653,425.087 767.825,425.087 767.825,425.087 C 767.825,425.087 767.825,414.512 767.825,410.987"
       id="path4706" />
    <path
       style="fill: none; fill-opacity:0; stroke-width: 0.2; stroke: #333333"
       d="M 767.825 410.987 C 767.825,407.462 767.825,407.462 770.372,407.462 C 772.919,407.462 772.919,407.462 775.466,407.462 C 778.012,407.462 778.012,407.462 778.012,410.987 C 778.012,410.987 785.653,410.987 785.653,410.987 C 785.653,410.987 785.653,425.087 785.653,425.087 C 785.653,425.087 767.825,425.087 767.825,425.087 C 767.825,425.087 767.825,414.512 767.825,410.987"
       id="path4708" />
    <polygon
       style="fill: #ffffff"
       points="767.825,425.087 765.278,412.75 783.106,412.75 785.653,425.087 "
       id="polygon4710" />
    <polygon
       style="fill: none; fill-opacity:0; stroke-width: 2; stroke: #333333"
       points="767.825,425.087 765.278,412.75 783.106,412.75 785.653,425.087 "
       id="polygon4712" />
    <polygon
       style="fill: none; fill-opacity:0; stroke-width: 0.2; stroke: #333333"
       points="767.825,425.087 765.278,412.75 783.106,412.75 785.653,425.087 "
       id="polygon4714" />
    <text
       style="fill: #000000;text-anchor:middle;font-size:1.6;font-family:sanserif;font-style:normal;font-weight:normal"
       x="775.466"
       y="417.656"
       id="text4716">
      <tspan
         x="775.466"
         y="417.656"
         id="tspan4718" />
    </text>
  </g>
  <g
     id="g4720">
    <polygon
       style="fill: #ffffff"
       points="794.278,431.464 801.412,431.464 803.791,433.842 803.791,443.355 794.278,443.355 "
       id="polygon4722" />
    <polygon
       style="fill: none; fill-opacity:0; stroke-width: 2; stroke: #333333"
       points="794.278,431.464 801.412,431.464 803.791,433.842 803.791,443.355 794.278,443.355 "
       id="polygon4724" />
    <polyline
       style="fill: none; fill-opacity:0; stroke-width: 2; stroke: #333333"
       points="801.412,431.464 801.412,433.842 803.791,433.842 803.791,433.842 "
       id="polyline4726" />
  </g>
  <text
     style="fill: #000000;text-anchor:start;font-size:14.1111;font-family:monospace;font-style:normal;font-weight:normal"
     x="760.652"
     y="388.338"
     id="text4728">
    <tspan
       x="760.652"
       y="388.338"
       id="tspan4730">Id: f58da9a</tspan>
  </text>
  <text
     style="fill: #000000;text-anchor:start;font-size:12.8;font-family:sanserif;font-style:normal;font-weight:normal"
     x="810.652"
     y="442.088"
     id="text4732">
    <tspan
       x="810.652"
       y="442.088"
       id="tspan4734">welcome.txt</tspan>
  </text>
  <text
     style="fill: #000000;text-anchor:start;font-size:14.1111;font-family:monospace;font-style:normal;font-weight:normal"
     x="945.85"
     y="392.2"
     id="text4736">
    <tspan
       x="945.85"
       y="392.2"
       id="tspan4738">Id: fd3c069</tspan>
    <tspan
       x="945.85"
       y="409.839"
       id="tspan4740" />
    <tspan
       x="945.85"
       y="427.478"
       id="tspan4742">内容...</tspan>
  </text>
  <line
     style="fill: none; fill-opacity:0; stroke-width: 2; stroke: #333333"
     x1="935.15"
     y1="395.686"
     x2="1046.15"
     y2="395.686"
     id="line4744" />
  <line
     style="fill: none; fill-opacity:0; stroke-width: 2; stroke: #333333"
     x1="751.902"
     y1="394.4"
     x2="893.152"
     y2="395.15"
     id="line4746" />
  <g
     id="g4756">
    <polyline
       style="fill: none; fill-opacity:0; stroke-width: 2; stroke: #0000ff"
       points="799.034,443.354 799.034,485.778 905,485.778 905,395.686 925.414,395.686 "
       id="polyline4758" />
    <polygon
       style="fill: #0000ff"
       points="932.914,395.686 922.914,400.686 925.414,395.686 922.914,390.686 "
       id="polygon4760" />
    <polygon
       style="fill: none; fill-opacity:0; stroke-width: 2; stroke: #0000ff"
       points="932.914,395.686 922.914,400.686 925.414,395.686 922.914,390.686 "
       id="polygon4762" />
  </g>
  <text
     style="fill: #000000;text-anchor:start;font-size:12.8;font-family:sanserif;font-style:normal;font-weight:normal"
     x="693"
     y="222.028"
     id="text4764">
    <tspan
       x="693"
       y="222.028"
       id="tspan4766" />
  </text>
  <text
     style="fill: #000000;text-anchor:start;font-size:12.8;font-family:方正大黑_GBK;font-style:normal;font-weight:normal"
     x="614"
     y="184.029"
     id="text4768">
    <tspan
       x="614"
       y="184.029"
       id="tspan4770">引用命名空间（.git/refs）</tspan>
  </text>
  <g
     id="g4772">
    <path
       style="fill: #e5d1cc"
       d="M 621.667 197.029 L 692.333,197.029 C 702.09,197.029 710,212.475 710,231.529 C 710,250.583 702.09,266.029 692.333,266.029 L 621.667,266.029 C 611.91,266.029 604,250.583 604,231.529 C 604,212.475 611.91,197.029 621.667,197.029z"
       id="path4774" />
    <path
       style="fill: none; fill-opacity:0; stroke-width: 2; stroke: #333333"
       d="M 621.667 197.029 L 692.333,197.029 C 702.09,197.029 710,212.475 710,231.529 C 710,250.583 702.09,266.029 692.333,266.029 L 621.667,266.029 C 611.91,266.029 604,250.583 604,231.529 C 604,212.475 611.91,197.029 621.667,197.029"
       id="path4776" />
    <text
       style="fill: #000000;text-anchor:middle;font-size:12.8;font-family:sanserif;font-style:normal;font-weight:normal"
       x="657"
       y="235.529"
       id="text4778">
      <tspan
         x="657"
         y="235.529"
         id="tspan4780" />
    </text>
  </g>
  <text
     style="fill: #000000;text-anchor:start;font-size:12.8;font-family:方正大黑_GBK;font-style:normal;font-weight:normal"
     x="617"
     y="212.028"
     id="text4782">
    <tspan
       x="617"
       y="212.028"
       id="tspan4784">分支(heads)</tspan>
  </text>
  <g
     id="g4786">
    <path
       style="fill: #ffffff"
       d="M 632.836 229.8 L 670.586,229.8 L 670.586,247 L 651.711,251.3 L 632.836,247 L 632.836,229.8z"
       id="path4788" />
    <path
       style="fill: none; fill-opacity:0; stroke-width: 2; stroke: #333333"
       d="M 632.836 229.8 L 670.586,229.8 L 670.586,247 L 651.711,251.3 L 632.836,247 L 632.836,229.8"
       id="path4790" />
    <text
       style="fill: #000000;text-anchor:middle;font-size:10.16;font-family:sanserif;font-style:normal;font-weight:normal"
       x="651.711"
       y="241.575"
       id="text4792">
      <tspan
         x="651.711"
         y="241.575"
         id="tspan4794">master</tspan>
    </text>
  </g>
  <g
     id="g4796">
    <polyline
       style="fill: none; fill-opacity:0; stroke-width: 2; stroke: #0000ff"
       points="651.71,251.3 651.71,299.028 620.026,299.028 620.026,341.602 "
       id="polyline4798" />
    <polygon
       style="fill: #0000ff"
       points="620.026,349.102 615.026,339.102 620.026,341.602 625.026,339.102 "
       id="polygon4800" />
    <polygon
       style="fill: none; fill-opacity:0; stroke-width: 2; stroke: #0000ff"
       points="620.026,349.102 615.026,339.102 620.026,341.602 625.026,339.102 "
       id="polygon4802" />
  </g>
  <g
     id="g4804">
    <polyline
       style="fill: none; fill-opacity:0; stroke-width: 2; stroke: #0000ff"
       points="526.675,209.029 526.675,238.4 623.1,238.4 "
       id="polyline4806" />
    <polygon
       style="fill: #0000ff"
       points="630.6,238.4 620.6,243.4 623.1,238.4 620.6,233.4 "
       id="polygon4808" />
    <polygon
       style="fill: none; fill-opacity:0; stroke-width: 2; stroke: #0000ff"
       points="630.6,238.4 620.6,243.4 623.1,238.4 620.6,233.4 "
       id="polygon4810" />
  </g>
  <polyline
     style="fill: none; fill-opacity:0; stroke-width: 2; stroke: #0000ff"
     points="542.152,539.788 522,539.788 522,577.028 522.152,577.028 "
     id="polyline4812" />
  <g
     id="g4814">
    <polygon
       style="fill: #ffffff"
       points="751.7,511.728 755.93,511.728 762.98,491.728 808.099,491.728 815.149,511.728 885.648,511.728 892.698,515.543 892.698,588.028 751.7,588.028 "
       id="polygon4816" />
    <polygon
       style="fill: none; fill-opacity:0; stroke-width: 2; stroke: #333333"
       points="751.7,511.728 755.93,511.728 762.98,491.728 808.099,491.728 815.149,511.728 885.648,511.728 892.698,515.543 892.698,588.028 751.7,588.028 "
       id="polygon4818" />
    <text
       style="fill: #000000;text-anchor:start;font-size:12.8;font-family:sanserif;font-style:normal;font-weight:normal"
       x="761.7"
       y="522.428"
       id="text4820">
      <tspan
         x="761.7"
         y="522.428"
         id="tspan4822" />
    </text>
  </g>
  <text
     style="fill: #000000;text-anchor:start;font-size:14.1111;font-family:sanserif;font-style:normal;font-weight:700"
     x="769.4"
     y="506.328"
     id="text4824">
    <tspan
       x="769.4"
       y="506.328"
       id="tspan4826">tree</tspan>
  </text>
  <g
     id="g4828">
    <line
       style="fill: none; fill-opacity:0; stroke-width: 2; stroke: #333333"
       x1="776.543"
       y1="569.229"
       x2="777.033"
       y2="584.027"
       id="line4830" />
    <line
       style="fill: none; fill-opacity:0; stroke-width: 2; stroke: #333333"
       x1="776.871"
       y1="579.119"
       x2="794.076"
       y2="578.549"
       id="line4832" />
  </g>
  <g
     id="g4834">
    <path
       style="fill: #e6e6e6"
       d="M 767.623 552.129 C 767.623,548.604 767.623,548.604 770.17,548.604 C 772.717,548.604 772.717,548.604 775.264,548.604 C 777.81,548.604 777.81,548.604 777.81,552.129 C 777.81,552.129 785.451,552.129 785.451,552.129 C 785.451,552.129 785.451,566.229 785.451,566.229 C 785.451,566.229 767.623,566.229 767.623,566.229 C 767.623,566.229 767.623,555.654 767.623,552.129z"
       id="path4836" />
    <path
       style="fill: none; fill-opacity:0; stroke-width: 2; stroke: #333333"
       d="M 767.623 552.129 C 767.623,548.604 767.623,548.604 770.17,548.604 C 772.717,548.604 772.717,548.604 775.264,548.604 C 777.81,548.604 777.81,548.604 777.81,552.129 C 777.81,552.129 785.451,552.129 785.451,552.129 C 785.451,552.129 785.451,566.229 785.451,566.229 C 785.451,566.229 767.623,566.229 767.623,566.229 C 767.623,566.229 767.623,555.654 767.623,552.129"
       id="path4838" />
    <path
       style="fill: none; fill-opacity:0; stroke-width: 0.2; stroke: #333333"
       d="M 767.623 552.129 C 767.623,548.604 767.623,548.604 770.17,548.604 C 772.717,548.604 772.717,548.604 775.264,548.604 C 777.81,548.604 777.81,548.604 777.81,552.129 C 777.81,552.129 785.451,552.129 785.451,552.129 C 785.451,552.129 785.451,566.229 785.451,566.229 C 785.451,566.229 767.623,566.229 767.623,566.229 C 767.623,566.229 767.623,555.654 767.623,552.129"
       id="path4840" />
    <polygon
       style="fill: #ffffff"
       points="767.623,566.229 765.076,553.892 782.904,553.892 785.451,566.229 "
       id="polygon4842" />
    <polygon
       style="fill: none; fill-opacity:0; stroke-width: 2; stroke: #333333"
       points="767.623,566.229 765.076,553.892 782.904,553.892 785.451,566.229 "
       id="polygon4844" />
    <polygon
       style="fill: none; fill-opacity:0; stroke-width: 0.2; stroke: #333333"
       points="767.623,566.229 765.076,553.892 782.904,553.892 785.451,566.229 "
       id="polygon4846" />
    <text
       style="fill: #000000;text-anchor:middle;font-size:1.6;font-family:sanserif;font-style:normal;font-weight:normal"
       x="775.264"
       y="558.798"
       id="text4848">
      <tspan
         x="775.264"
         y="558.798"
         id="tspan4850" />
    </text>
  </g>
  <g
     id="g4852">
    <polygon
       style="fill: #ffffff"
       points="794.076,572.604 801.21,572.604 803.589,574.982 803.589,584.495 794.076,584.495 "
       id="polygon4854" />
    <polygon
       style="fill: none; fill-opacity:0; stroke-width: 2; stroke: #333333"
       points="794.076,572.604 801.21,572.604 803.589,574.982 803.589,584.495 794.076,584.495 "
       id="polygon4856" />
    <polyline
       style="fill: none; fill-opacity:0; stroke-width: 2; stroke: #333333"
       points="801.21,572.604 801.21,574.982 803.589,574.982 803.589,574.982 "
       id="polyline4858" />
  </g>
  <text
     style="fill: #000000;text-anchor:start;font-size:14.1111;font-family:monospace;font-style:normal;font-weight:normal"
     x="760.45"
     y="529.478"
     id="text4860">
    <tspan
       x="760.45"
       y="529.478"
       id="tspan4862">Id: *******</tspan>
  </text>
  <line
     style="fill: none; fill-opacity:0; stroke-width: 2; stroke: #333333"
     x1="751.448"
     y1="535.542"
     x2="892.698"
     y2="536.292"
     id="line4864" />
  <g
     id="g4866">
    <path
       style="fill: #ffffff"
       d="M 938.7 490.728 L 1049.7,490.728 L 1049.7,567.871 C 1027.5,555.014 1016.4,555.014 994.2,567.871 C 972,580.728 960.9,580.728 938.7,567.871 L 938.7,490.728z"
       id="path4868" />
    <path
       style="fill: none; fill-opacity:0; stroke-width: 2; stroke: #333333"
       d="M 938.7 490.728 L 1049.7,490.728 L 1049.7,567.871 C 1027.5,555.014 1016.4,555.014 994.2,567.871 C 972,580.728 960.9,580.728 938.7,567.871 L 938.7,490.728"
       id="path4870" />
    <text
       style="fill: #000000;text-anchor:middle;font-size:12.8;font-family:sanserif;font-style:normal;font-weight:normal"
       x="994.2"
       y="526.871"
       id="text4872">
      <tspan
         x="994.2"
         y="526.871"
         id="tspan4874" />
    </text>
  </g>
  <text
     style="fill: #000000;text-anchor:start;font-size:14.1111;font-family:monospace;font-style:normal;font-weight:normal"
     x="949.4"
     y="506.528"
     id="text4876">
    <tspan
       x="949.4"
       y="506.528"
       id="tspan4878">Id: *******</tspan>
    <tspan
       x="949.4"
       y="524.167"
       id="tspan4880" />
    <tspan
       x="949.4"
       y="541.806"
       id="tspan4882">内容...</tspan>
  </text>
  <line
     style="fill: none; fill-opacity:0; stroke-width: 2; stroke: #333333"
     x1="938.7"
     y1="510.014"
     x2="1049.7"
     y2="510.014"
     id="line4884" />
  <g
     id="g4894">
    <polyline
       style="fill: none; fill-opacity:0; stroke-width: 2; stroke: #0000ff"
       points="803.588,578.55 904,578.55 904,510.014 928.964,510.014 "
       id="polyline4896" />
    <polygon
       style="fill: #0000ff"
       points="936.464,510.014 926.464,515.014 928.964,510.014 926.464,505.014 "
       id="polygon4898" />
    <polygon
       style="fill: none; fill-opacity:0; stroke-width: 2; stroke: #0000ff"
       points="936.464,510.014 926.464,515.014 928.964,510.014 926.464,505.014 "
       id="polygon4900" />
  </g>
  <g
     id="g4902">
    <polyline
       style="fill: none; fill-opacity:0; stroke-width: 2; stroke: #0000ff"
       points="941.363,256.545 990.65,256.545 990.65,366.664 "
       id="polyline4904" />
    <polygon
       style="fill: #0000ff"
       points="990.65,374.164 985.65,364.164 990.65,366.664 995.65,364.164 "
       id="polygon4906" />
    <polygon
       style="fill: none; fill-opacity:0; stroke-width: 2; stroke: #0000ff"
       points="990.65,374.164 985.65,364.164 990.65,366.664 995.65,364.164 "
       id="polygon4908" />
  </g>
</svg>
