<?xml version="1.0" encoding="UTF-8" standalone="no"?>
<svg
   xmlns:dc="http://purl.org/dc/elements/1.1/"
   xmlns:cc="http://creativecommons.org/ns#"
   xmlns:rdf="http://www.w3.org/1999/02/22-rdf-syntax-ns#"
   xmlns:svg="http://www.w3.org/2000/svg"
   xmlns="http://www.w3.org/2000/svg"
   xmlns:sodipodi="http://sodipodi.sourceforge.net/DTD/sodipodi-0.dtd"
   xmlns:inkscape="http://www.inkscape.org/namespaces/inkscape"
   width="33cm"
   height="12cm"
   viewBox="180 77 650 225"
   id="svg4874"
   version="1.1"
   inkscape:version="0.48.0 r9654"
   sodipodi:docname="fig-16-03-git-merge-pull-3.dia">
  <metadata
     id="metadata5032">
    <rdf:RDF>
      <cc:Work
         rdf:about="">
        <dc:format>image/svg+xml</dc:format>
        <dc:type
           rdf:resource="http://purl.org/dc/dcmitype/StillImage" />
        <dc:title></dc:title>
      </cc:Work>
    </rdf:RDF>
  </metadata>
  <defs
     id="defs5030" />
  <sodipodi:namedview
     pagecolor="#ffffff"
     bordercolor="#666666"
     borderopacity="1"
     objecttolerance="10"
     gridtolerance="10"
     guidetolerance="10"
     inkscape:pageopacity="0"
     inkscape:pageshadow="2"
     inkscape:window-width="1280"
     inkscape:window-height="752"
     id="namedview5028"
     showgrid="false"
     inkscape:zoom="0.43530638"
     inkscape:cx="584.64569"
     inkscape:cy="212.59842"
     inkscape:window-x="0"
     inkscape:window-y="0"
     inkscape:window-maximized="0"
     inkscape:current-layer="svg4874" />
  <g
     id="g4876">
    <path
       style="fill: #ffff00"
       d="M 634.45 100.95 L 749.95,100.95 C 807.7,100.95 807.7,100.95 807.7,145.4 L 807.7,234.3 C 807.7,278.75 807.7,278.75 749.95,278.75 L 634.45,278.75 C 576.7,278.75 576.7,278.75 576.7,234.3 L 576.7,145.4 C 576.7,100.95 576.7,100.95 634.45,100.95z"
       id="path4878" />
    <path
       style="fill: none; fill-opacity:0; stroke-width: 2; stroke: #a0a0a0"
       d="M 634.45 100.95 L 749.95,100.95 C 807.7,100.95 807.7,100.95 807.7,145.4 L 807.7,234.3 C 807.7,278.75 807.7,278.75 749.95,278.75 L 634.45,278.75 C 576.7,278.75 576.7,278.75 576.7,234.3 L 576.7,145.4 C 576.7,100.95 576.7,100.95 634.45,100.95"
       id="path4880" />
    <text
       style="fill: #000000;text-anchor:start;font-size:12.8;font-family:sanserif;font-style:normal;font-weight:normal"
       x="598.25"
       y="120.54"
       id="text4882">
      <tspan
         x="598.25"
         y="120.54"
         id="tspan4884" />
    </text>
  </g>
  <g
     id="g4886">
    <path
       style="fill: #ffffaa"
       d="M 261.45 101.45 L 376.95,101.45 C 434.7,101.45 434.7,101.45 434.7,145.9 L 434.7,234.8 C 434.7,279.25 434.7,279.25 376.95,279.25 L 261.45,279.25 C 203.7,279.25 203.7,279.25 203.7,234.8 L 203.7,145.9 C 203.7,101.45 203.7,101.45 261.45,101.45z"
       id="path4888" />
    <path
       style="fill: none; fill-opacity:0; stroke-width: 2; stroke: #a0a0a0"
       d="M 261.45 101.45 L 376.95,101.45 C 434.7,101.45 434.7,101.45 434.7,145.9 L 434.7,234.8 C 434.7,279.25 434.7,279.25 376.95,279.25 L 261.45,279.25 C 203.7,279.25 203.7,279.25 203.7,234.8 L 203.7,145.9 C 203.7,101.45 203.7,101.45 261.45,101.45"
       id="path4890" />
    <text
       style="fill: #000000;text-anchor:start;font-size:12.8;font-family:sanserif;font-style:normal;font-weight:normal"
       x="225.25"
       y="121.04"
       id="text4892">
      <tspan
         x="225.25"
         y="121.04"
         id="tspan4894" />
    </text>
  </g>
  <text
     style="fill: #000000;text-anchor:start;font-size:12.8;font-family:sanserif;font-style:normal;font-weight:normal"
     x="257.45"
     y="269.25"
     id="text4896">
    <tspan
       x="257.45"
       y="269.25"
       id="tspan4898">用户 user1 本地版本库</tspan>
  </text>
  <text
     style="fill: #000000;text-anchor:start;font-size:12.8;font-family:sanserif;font-style:normal;font-weight:normal"
     x="675.15"
     y="268.75"
     id="text4900">
    <tspan
       x="675.15"
       y="268.75"
       id="tspan4902">共享版本库</tspan>
  </text>
  <text
     style="fill: #000000;text-anchor:start;font-size:15.8044;font-family:sanserif;font-style:normal;font-weight:normal"
     x="436.95"
     y="210"
     id="text4904">
    <tspan
       x="436.95"
       y="210"
       id="tspan4906">git merge</tspan>
  </text>
  <ellipse
     sodipodi:ry="12.6265"
     sodipodi:rx="13.078"
     sodipodi:cy="164.02699"
     sodipodi:cx="332.67801"
     id="ellipse4910"
     ry="12.6265"
     rx="13.078"
     cy="164.02699"
     cx="332.67801"
     style="fill:#ffffff" />
  <ellipse
     sodipodi:ry="12.6265"
     sodipodi:rx="13.078"
     sodipodi:cy="164.02699"
     sodipodi:cx="332.67801"
     id="ellipse4912"
     ry="12.6265"
     rx="13.078"
     cy="164.02699"
     cx="332.67801"
     style="fill:none;stroke:#000000;stroke-width:2" />
  <text
     id="text4914"
     y="168.13664"
     x="332.67801"
     style="font-size:14.1111002px;font-style:normal;font-weight:normal;text-anchor:middle;fill:#000000;font-family:monospace">
    <tspan
       id="tspan4916"
       y="168.13664"
       x="332.67801">B</tspan>
  </text>
  <ellipse
     sodipodi:ry="12.6265"
     sodipodi:rx="13.078"
     sodipodi:cy="164.02699"
     sodipodi:cx="233.67799"
     id="ellipse4920"
     ry="12.6265"
     rx="13.078"
     cy="164.02699"
     cx="233.67799"
     style="fill:#ffffff" />
  <ellipse
     sodipodi:ry="12.6265"
     sodipodi:rx="13.078"
     sodipodi:cy="164.02699"
     sodipodi:cx="233.67799"
     id="ellipse4922"
     ry="12.6265"
     rx="13.078"
     cy="164.02699"
     cx="233.67799"
     style="fill:none;stroke:#000000;stroke-width:2" />
  <text
     id="text4924"
     y="168.13664"
     x="233.67799"
     style="font-size:14.1111002px;font-style:normal;font-weight:normal;text-anchor:middle;fill:#000000;font-family:monospace">
    <tspan
       id="tspan4926"
       y="168.13664"
       x="233.67799">A</tspan>
  </text>
  <line
     style="fill: none; fill-opacity:0; stroke-width: 2; stroke: #000000"
     x1="246.756"
     y1="164.027"
     x2="319.6"
     y2="164.027"
     id="line4928" />
  <line
     style="fill: none; fill-opacity:0; stroke-width: 2; stroke-dasharray: 4; stroke: #000000"
     x1="341.926"
     y1="172.955"
     x2="382.696"
     y2="210.744"
     id="line4930" />
  <line
     style="fill: none; fill-opacity:0; stroke-width: 2; stroke: #000000"
     x1="242.926"
     y1="172.955"
     x2="278.696"
     y2="210.494"
     id="line4932" />
  <ellipse
     sodipodi:ry="12.6265"
     sodipodi:rx="13.078"
     sodipodi:cy="215.327"
     sodipodi:cx="290.77802"
     id="ellipse4936"
     ry="12.6265"
     rx="13.078"
     cy="215.327"
     cx="290.77802"
     style="fill:#ffffff" />
  <ellipse
     sodipodi:ry="12.6265"
     sodipodi:rx="13.078"
     sodipodi:cy="215.327"
     sodipodi:cx="290.77802"
     id="ellipse4938"
     ry="12.6265"
     rx="13.078"
     cy="215.327"
     cx="290.77802"
     style="fill:none;stroke:#000000;stroke-width:2" />
  <text
     id="text4940"
     y="219.43665"
     x="290.77802"
     style="font-size:14.1111002px;font-style:normal;font-weight:normal;text-anchor:middle;fill:#000000;font-family:monospace">
    <tspan
       id="tspan4942"
       y="219.43665"
       x="290.77802">C</tspan>
  </text>
  <ellipse
     sodipodi:ry="12.6265"
     sodipodi:rx="13.078"
     sodipodi:cy="215.577"
     sodipodi:cx="394.77802"
     id="ellipse4946"
     ry="12.6265"
     rx="13.078"
     cy="215.577"
     cx="394.77802"
     style="fill:#ffffff" />
  <ellipse
     sodipodi:ry="12.6265"
     sodipodi:rx="13.078"
     sodipodi:cy="215.577"
     sodipodi:cx="394.77802"
     id="ellipse4948"
     ry="12.6265"
     rx="13.078"
     cy="215.577"
     cx="394.77802"
     style="fill:none;stroke:#000000;stroke-width:2;stroke-dasharray:4" />
  <text
     id="text4950"
     y="219.68665"
     x="394.77802"
     style="font-size:14.1111002px;font-style:normal;font-weight:normal;text-anchor:middle;fill:#000000;font-family:monospace">
    <tspan
       id="tspan4952"
       y="219.68665"
       x="394.77802">D</tspan>
  </text>
  <line
     style="fill: none; fill-opacity:0; stroke-width: 2; stroke-dasharray: 4; stroke: #000000"
     x1="303.856"
     y1="215.326"
     x2="381.7"
     y2="215.576"
     id="line4954" />
  <g
     id="g4956">
    <path
       style="fill: #ff0000"
       d="M 388.95 120.2 L 404.75,120.2 L 404.75,134.9 L 396.85,138.575 L 388.95,134.9 L 388.95,120.2z"
       id="path4958" />
    <path
       style="fill: none; fill-opacity:0; stroke-width: 2; stroke-dasharray: 4; stroke: #000000"
       d="M 388.95 120.2 L 404.75,120.2 L 404.75,134.9 L 396.85,138.575 L 388.95,134.9 L 388.95,120.2"
       id="path4960" />
    <text
       style="fill: #000000;text-anchor:middle;font-size:10.16;font-family:monospace;font-style:normal;font-weight:700"
       x="396.85"
       y="130.725"
       id="text4962">
      <tspan
         x="396.85"
         y="130.725"
         id="tspan4964" />
    </text>
  </g>
  <text
     style="fill: #000000;text-anchor:start;font-size:9.03111;font-family:serif;font-style:normal;font-weight:normal"
     x="382.75"
     y="114.5"
     id="text4966">
    <tspan
       x="382.75"
       y="114.5"
       id="tspan4968">master</tspan>
  </text>
  <ellipse
     sodipodi:ry="12.6265"
     sodipodi:rx="13.078"
     sodipodi:cy="163.52699"
     sodipodi:cx="707.37799"
     id="ellipse4972"
     ry="12.6265"
     rx="13.078"
     cy="163.52699"
     cx="707.37799"
     style="fill:#ffffff" />
  <ellipse
     sodipodi:ry="12.6265"
     sodipodi:rx="13.078"
     sodipodi:cy="163.52699"
     sodipodi:cx="707.37799"
     id="ellipse4974"
     ry="12.6265"
     rx="13.078"
     cy="163.52699"
     cx="707.37799"
     style="fill:none;stroke:#000000;stroke-width:2" />
  <text
     id="text4976"
     y="167.63664"
     x="707.37799"
     style="font-size:14.1111002px;font-style:normal;font-weight:normal;text-anchor:middle;fill:#000000;font-family:monospace">
    <tspan
       id="tspan4978"
       y="167.63664"
       x="707.37799">B</tspan>
  </text>
  <ellipse
     sodipodi:ry="12.6265"
     sodipodi:rx="13.078"
     sodipodi:cy="163.52699"
     sodipodi:cx="608.37799"
     id="ellipse4982"
     ry="12.6265"
     rx="13.078"
     cy="163.52699"
     cx="608.37799"
     style="fill:#ffffff" />
  <ellipse
     sodipodi:ry="12.6265"
     sodipodi:rx="13.078"
     sodipodi:cy="163.52699"
     sodipodi:cx="608.37799"
     id="ellipse4984"
     ry="12.6265"
     rx="13.078"
     cy="163.52699"
     cx="608.37799"
     style="fill:none;stroke:#000000;stroke-width:2" />
  <text
     id="text4986"
     y="167.63664"
     x="608.37799"
     style="font-size:14.1111002px;font-style:normal;font-weight:normal;text-anchor:middle;fill:#000000;font-family:monospace">
    <tspan
       id="tspan4988"
       y="167.63664"
       x="608.37799">A</tspan>
  </text>
  <line
     style="fill: none; fill-opacity:0; stroke-width: 2; stroke: #000000"
     x1="621.456"
     y1="163.527"
     x2="694.3"
     y2="163.527"
     id="line4990" />
  <g
     id="g4992">
    <path
       style="fill: #0000ff"
       d="M 699.65 119.7 L 715.45,119.7 L 715.45,134.4 L 707.55,138.075 L 699.65,134.4 L 699.65,119.7z"
       id="path4994" />
    <path
       style="fill: none; fill-opacity:0; stroke-width: 2; stroke: #000000"
       d="M 699.65 119.7 L 715.45,119.7 L 715.45,134.4 L 707.55,138.075 L 699.65,134.4 L 699.65,119.7"
       id="path4996" />
    <text
       style="fill: #000000;text-anchor:middle;font-size:10.16;font-family:monospace;font-style:normal;font-weight:700"
       x="707.55"
       y="130.225"
       id="text4998">
      <tspan
         x="707.55"
         y="130.225"
         id="tspan5000" />
    </text>
  </g>
  <text
     style="fill: #000000;text-anchor:start;font-size:9.03111;font-family:serif;font-style:normal;font-weight:normal"
     x="693.45"
     y="114"
     id="text5002">
    <tspan
       x="693.45"
       y="114"
       id="tspan5004">master</tspan>
  </text>
  <g
     id="g5006">
    <path
       style="fill: #0000ff"
       d="M 324.302 119.8 L 340.102,119.8 L 340.102,134.5 L 332.202,138.175 L 324.302,134.5 L 324.302,119.8z"
       id="path5008" />
    <path
       style="fill: none; fill-opacity:0; stroke-width: 2; stroke: #000000"
       d="M 324.302 119.8 L 340.102,119.8 L 340.102,134.5 L 332.202,138.175 L 324.302,134.5 L 324.302,119.8"
       id="path5010" />
    <text
       style="fill: #000000;text-anchor:middle;font-size:10.16;font-family:monospace;font-style:normal;font-weight:700"
       x="332.202"
       y="130.325"
       id="text5012">
      <tspan
         x="332.202"
         y="130.325"
         id="tspan5014" />
    </text>
  </g>
  <text
     style="fill: #000000;text-anchor:start;font-size:9.03111;font-family:serif;font-style:normal;font-weight:normal"
     x="299.102"
     y="114.1"
     id="text5016">
    <tspan
       x="299.102"
       y="114.1"
       id="tspan5018">origin/master</tspan>
  </text>
  <g
     id="g5020">
    <path
       style="fill: none; fill-opacity:0; stroke-width: 4; stroke: #ff0000"
       d="M 429.516,190.348 A 18.0278,18.0278 0 0 0 424.124,162.25"
       id="path5022" />
    <polygon
       style="fill: #ff0000"
       points="426.974,189.022 433.321,188.178 429.14,191.097 426.404,195.399 "
       id="polygon5024" />
    <polygon
       style="fill: none; fill-opacity:0; stroke-width: 4; stroke: #ff0000"
       points="426.974,189.022 433.321,188.178 429.14,191.097 426.404,195.399 "
       id="polygon5026" />
  </g>
</svg>
