<?xml version="1.0" encoding="UTF-8" standalone="no"?>
<svg
   xmlns:dc="http://purl.org/dc/elements/1.1/"
   xmlns:cc="http://creativecommons.org/ns#"
   xmlns:rdf="http://www.w3.org/1999/02/22-rdf-syntax-ns#"
   xmlns:svg="http://www.w3.org/2000/svg"
   xmlns="http://www.w3.org/2000/svg"
   xmlns:sodipodi="http://sodipodi.sourceforge.net/DTD/sodipodi-0.dtd"
   xmlns:inkscape="http://www.inkscape.org/namespaces/inkscape"
   width="27cm"
   height="11cm"
   viewBox="177 81 521 220"
   id="svg6841"
   version="1.1"
   inkscape:version="0.48.0 r9654"
   sodipodi:docname="fig-13-03-git-clone-2.dia">
  <metadata
     id="metadata6989">
    <rdf:RDF>
      <cc:Work
         rdf:about="">
        <dc:format>image/svg+xml</dc:format>
        <dc:type
           rdf:resource="http://purl.org/dc/dcmitype/StillImage" />
        <dc:title></dc:title>
      </cc:Work>
    </rdf:RDF>
  </metadata>
  <defs
     id="defs6987" />
  <sodipodi:namedview
     pagecolor="#ffffff"
     bordercolor="#666666"
     borderopacity="1"
     objecttolerance="10"
     gridtolerance="10"
     guidetolerance="10"
     inkscape:pageopacity="0"
     inkscape:pageshadow="2"
     inkscape:window-width="1280"
     inkscape:window-height="752"
     id="namedview6985"
     showgrid="false"
     inkscape:zoom="0.53204114"
     inkscape:cx="478.34647"
     inkscape:cy="194.8819"
     inkscape:window-x="0"
     inkscape:window-y="0"
     inkscape:window-maximized="0"
     inkscape:current-layer="svg6841" />
  <g
     id="g6843">
    <path
       style="fill: #cadaa9"
       d="M 249.25 104.948 L 347.75,104.948 C 397,104.948 397,104.948 397,146.461 L 397,229.487 C 397,271 397,271 347.75,271 L 249.25,271 C 200,271 200,271 200,229.487 L 200,146.461 C 200,104.948 200,104.948 249.25,104.948z"
       id="path6845" />
    <path
       style="fill: none; fill-opacity:0; stroke-width: 2; stroke: #333333"
       d="M 249.25 104.948 L 347.75,104.948 C 397,104.948 397,104.948 397,146.461 L 397,229.487 C 397,271 397,271 347.75,271 L 249.25,271 C 200,271 200,271 200,229.487 L 200,146.461 C 200,104.948 200,104.948 249.25,104.948"
       id="path6847" />
    <text
       style="fill: #000000;text-anchor:start;font-size:12.8;font-family:sanserif;font-style:normal;font-weight:normal"
       x="219.85"
       y="123.951"
       id="text6849">
      <tspan
         x="219.85"
         y="123.951"
         id="tspan6851" />
    </text>
  </g>
  <text
     style="fill: #000000;text-anchor:start;font-size:11.2889;font-family:黑体;font-style:normal;font-weight:normal"
     x="218.7"
     y="135.376"
     id="text6853">
    <tspan
       x="218.7"
       y="135.376"
       id="tspan6855">A 工作区</tspan>
  </text>
  <text
     style="fill: #000000;text-anchor:start;font-size:12.8;font-family:sanserif;font-style:normal;font-weight:normal"
     x="353.578"
     y="264.374"
     id="text6857">
    <tspan
       x="353.578"
       y="264.374"
       id="tspan6859" />
  </text>
  <text
     style="fill: #000000;text-anchor:start;font-size:12.8;font-family:sanserif;font-style:normal;font-weight:normal"
     x="348.572"
     y="270.376"
     id="text6861">
    <tspan
       x="348.572"
       y="270.376"
       id="tspan6863" />
  </text>
  <g
     id="g6865">
    <path
       style="fill: #afc2da"
       d="M 289.572 174.573 C 305.258,165.059 313.1,161.888 328.786,161.888 C 344.472,161.888 352.314,165.059 368,174.573 L 368,225.315 C 352.314,234.829 344.472,238 328.786,238 C 313.1,238 305.258,234.829 289.572,225.315 L 289.572,174.573z"
       id="path6867" />
    <path
       style="fill: none; fill-opacity:0; stroke-width: 2; stroke: #333333"
       d="M 289.572 174.573 C 305.258,165.059 313.1,161.888 328.786,161.888 C 344.472,161.888 352.314,165.059 368,174.573 L 368,225.315 C 352.314,234.829 344.472,238 328.786,238 C 313.1,238 305.258,234.829 289.572,225.315 L 289.572,174.573"
       id="path6869" />
    <path
       style="fill: none; fill-opacity:0; stroke-width: 2; stroke: #333333"
       d="M 289.572 174.573 C 305.258,184.087 313.1,187.259 328.786,187.259 C 344.472,187.259 352.314,184.087 368,174.573"
       id="path6871" />
    <text
       style="fill: #000000;text-anchor:middle;font-size:15.8044;font-family:monospace;font-style:normal;font-weight:700"
       x="328.786"
       y="211.226"
       id="text6873">
      <tspan
         x="328.786"
         y="211.226"
         id="tspan6875">.git</tspan>
    </text>
  </g>
  <g
     id="g6877">
    <line
       style="fill: none; fill-opacity:0; stroke-width: 2; stroke: #333333"
       x1="225.578"
       y1="178.726"
       x2="225.578"
       y2="233.038"
       id="line6879" />
    <line
       style="fill: none; fill-opacity:0; stroke-width: 2; stroke: #333333"
       x1="225.578"
       y1="188.976"
       x2="244.202"
       y2="188.976"
       id="line6881" />
    <line
       style="fill: none; fill-opacity:0; stroke-width: 2; stroke: #333333"
       x1="225.578"
       y1="207.476"
       x2="244.702"
       y2="207.476"
       id="line6883" />
    <line
       style="fill: none; fill-opacity:0; stroke-width: 2; stroke: #333333"
       x1="225.578"
       y1="225.976"
       x2="245.202"
       y2="225.976"
       id="line6885" />
  </g>
  <g
     id="g6887">
    <path
       style="fill: #e6e6e6"
       d="M 216.625 161.625 C 216.625,158.1 216.625,158.1 219.172,158.1 C 221.719,158.1 221.719,158.1 224.266,158.1 C 226.812,158.1 226.812,158.1 226.812,161.625 C 226.812,161.625 234.453,161.625 234.453,161.625 C 234.453,161.625 234.453,175.725 234.453,175.725 C 234.453,175.725 216.625,175.725 216.625,175.725 C 216.625,175.725 216.625,165.15 216.625,161.625z"
       id="path6889" />
    <path
       style="fill: none; fill-opacity:0; stroke-width: 2; stroke: #333333"
       d="M 216.625 161.625 C 216.625,158.1 216.625,158.1 219.172,158.1 C 221.719,158.1 221.719,158.1 224.266,158.1 C 226.812,158.1 226.812,158.1 226.812,161.625 C 226.812,161.625 234.453,161.625 234.453,161.625 C 234.453,161.625 234.453,175.725 234.453,175.725 C 234.453,175.725 216.625,175.725 216.625,175.725 C 216.625,175.725 216.625,165.15 216.625,161.625"
       id="path6891" />
    <path
       style="fill: none; fill-opacity:0; stroke-width: 0.2; stroke: #333333"
       d="M 216.625 161.625 C 216.625,158.1 216.625,158.1 219.172,158.1 C 221.719,158.1 221.719,158.1 224.266,158.1 C 226.812,158.1 226.812,158.1 226.812,161.625 C 226.812,161.625 234.453,161.625 234.453,161.625 C 234.453,161.625 234.453,175.725 234.453,175.725 C 234.453,175.725 216.625,175.725 216.625,175.725 C 216.625,175.725 216.625,165.15 216.625,161.625"
       id="path6893" />
    <polygon
       style="fill: #ffffff"
       points="216.625,175.725 214.078,163.388 231.906,163.388 234.453,175.725 "
       id="polygon6895" />
    <polygon
       style="fill: none; fill-opacity:0; stroke-width: 2; stroke: #333333"
       points="216.625,175.725 214.078,163.388 231.906,163.388 234.453,175.725 "
       id="polygon6897" />
    <polygon
       style="fill: none; fill-opacity:0; stroke-width: 0.2; stroke: #333333"
       points="216.625,175.725 214.078,163.388 231.906,163.388 234.453,175.725 "
       id="polygon6899" />
    <text
       style="fill: #000000;text-anchor:middle;font-size:1.6;font-family:sanserif;font-style:normal;font-weight:normal"
       x="224.266"
       y="168.294"
       id="text6901">
      <tspan
         x="224.266"
         y="168.294"
         id="tspan6903" />
    </text>
  </g>
  <g
     id="g6905">
    <polygon
       style="fill: #ffffff"
       points="249.578,181.35 256.712,181.35 259.09,183.728 259.09,193.241 249.578,193.241 "
       id="polygon6907" />
    <polygon
       style="fill: none; fill-opacity:0; stroke-width: 2; stroke: #333333"
       points="249.578,181.35 256.712,181.35 259.09,183.728 259.09,193.241 249.578,193.241 "
       id="polygon6909" />
    <polyline
       style="fill: none; fill-opacity:0; stroke-width: 2; stroke: #333333"
       points="256.712,181.35 256.712,183.728 259.09,183.728 259.09,183.728 "
       id="polyline6911" />
  </g>
  <g
     id="g6913">
    <polygon
       style="fill: #ffffff"
       points="251.052,201.826 258.186,201.826 260.564,204.204 260.564,213.717 251.052,213.717 "
       id="polygon6915" />
    <polygon
       style="fill: none; fill-opacity:0; stroke-width: 2; stroke: #333333"
       points="251.052,201.826 258.186,201.826 260.564,204.204 260.564,213.717 251.052,213.717 "
       id="polygon6917" />
    <polyline
       style="fill: none; fill-opacity:0; stroke-width: 2; stroke: #333333"
       points="258.186,201.826 258.186,204.204 260.564,204.204 260.564,204.204 "
       id="polyline6919" />
  </g>
  <g
     id="g6921">
    <polygon
       style="fill: #ffffff"
       points="251.552,221.326 258.686,221.326 261.065,223.704 261.065,233.217 251.552,233.217 "
       id="polygon6923" />
    <polygon
       style="fill: none; fill-opacity:0; stroke-width: 2; stroke: #333333"
       points="251.552,221.326 258.686,221.326 261.065,223.704 261.065,233.217 251.552,233.217 "
       id="polygon6925" />
    <polyline
       style="fill: none; fill-opacity:0; stroke-width: 2; stroke: #333333"
       points="258.686,221.326 258.686,223.704 261.065,223.704 261.065,223.704 "
       id="polyline6927" />
  </g>
  <text
     style="fill: #000000;text-anchor:start;font-size:12.8;font-family:sanserif;font-style:normal;font-weight:normal"
     x="690.278"
     y="264.126"
     id="text6929">
    <tspan
       x="690.278"
       y="264.126"
       id="tspan6931" />
  </text>
  <text
     style="fill: #000000;text-anchor:start;font-size:12.8;font-family:sanserif;font-style:normal;font-weight:normal"
     x="685.272"
     y="270.128"
     id="text6933">
    <tspan
       x="685.272"
       y="270.128"
       id="tspan6935" />
  </text>
  <g
     id="g6937">
    <path
       style="fill: #afc2da"
       d="M 602.272 159.438 C 621.018,146.359 630.39,142 649.136,142 C 667.882,142 677.254,146.359 696,159.438 L 696,229.188 C 677.254,242.266 667.882,246.625 649.136,246.625 C 630.39,246.625 621.018,242.266 602.272,229.188 L 602.272,159.438z"
       id="path6939" />
    <path
       style="fill: none; fill-opacity:0; stroke-width: 2; stroke: #333333"
       d="M 602.272 159.438 C 621.018,146.359 630.39,142 649.136,142 C 667.882,142 677.254,146.359 696,159.438 L 696,229.188 C 677.254,242.266 667.882,246.625 649.136,246.625 C 630.39,246.625 621.018,242.266 602.272,229.188 L 602.272,159.438"
       id="path6941" />
    <path
       style="fill: none; fill-opacity:0; stroke-width: 2; stroke: #333333"
       d="M 602.272 159.438 C 621.018,172.516 630.39,176.875 649.136,176.875 C 667.882,176.875 677.254,172.516 696,159.438"
       id="path6943" />
    <text
       style="fill: #000000;text-anchor:middle;font-size:15.8044;font-family:monospace;font-style:normal;font-weight:700"
       x="649.136"
       y="207.97"
       id="text6945">
      <tspan
         x="649.136"
         y="207.97"
         id="tspan6947">.git</tspan>
    </text>
  </g>
  <g
     id="g6949">
    <line
       style="fill: none; fill-opacity:0; stroke-width: 2; stroke-dasharray: 4; stroke: #000000"
       x1="396"
       y1="168.219"
       x2="587.298"
       y2="168.13"
       id="line6951" />
    <polygon
       style="fill: #000000"
       points="594.798,168.126 584.8,173.131 587.298,168.13 584.796,163.131 "
       id="polygon6953" />
    <polygon
       style="fill: none; fill-opacity:0; stroke-width: 2; stroke: #000000"
       points="594.798,168.126 584.8,173.131 587.298,168.13 584.796,163.131 "
       id="polygon6955" />
  </g>
  <g
     id="g6957">
    <line
       style="fill: none; fill-opacity:0; stroke-width: 2; stroke: #000000"
       x1="398.1"
       y1="215.054"
       x2="588.388"
       y2="215.121"
       id="line6959" />
    <polygon
       style="fill: #000000"
       points="595.888,215.123 585.886,220.12 588.388,215.121 585.89,210.12 "
       id="polygon6961" />
    <polygon
       style="fill: none; fill-opacity:0; stroke-width: 2; stroke: #000000"
       points="595.888,215.123 585.886,220.12 588.388,215.121 585.89,210.12 "
       id="polygon6963" />
  </g>
  <text
     style="fill: #000000;text-anchor:start;font-size:12.8;font-family:sanserif;font-style:normal;font-weight:normal"
     x="447.25"
     y="150.469"
     id="text6965">
    <tspan
       x="447.25"
       y="150.469"
       id="tspan6967" />
  </text>
  <text
     style="fill: #000000;text-anchor:start;font-size:15.8044;font-family:monospace;font-style:normal;font-weight:normal"
     x="411.25"
     y="157.469"
     id="text6969">
    <tspan
       x="411.25"
       y="157.469"
       id="tspan6971">git clone --bare</tspan>
  </text>
  <text
     style="fill: #000000;text-anchor:start;font-size:15.8044;font-family:monospace;font-style:normal;font-weight:normal"
     x="411.25"
     y="205.968"
     id="text6973">
    <tspan
       x="411.25"
       y="205.968"
       id="tspan6975">git push</tspan>
  </text>
  <text
     style="fill: #000000;text-anchor:start;font-size:18.0622;font-family:sanserif;font-style:normal;font-weight:700"
     x="262"
     y="301.278"
     id="text6977">
    <tspan
       x="262"
       y="301.278"
       id="tspan6979">A</tspan>
  </text>
  <text
     style="fill: #000000;text-anchor:start;font-size:18.0622;font-family:sanserif;font-style:normal;font-weight:700"
     x="626.7"
     y="301.278"
     id="text6981">
    <tspan
       x="626.7"
       y="301.278"
       id="tspan6983">B.git</tspan>
  </text>
</svg>
