<?xml version="1.0" encoding="UTF-8" standalone="no"?>
<svg
   xmlns:dc="http://purl.org/dc/elements/1.1/"
   xmlns:cc="http://creativecommons.org/ns#"
   xmlns:rdf="http://www.w3.org/1999/02/22-rdf-syntax-ns#"
   xmlns:svg="http://www.w3.org/2000/svg"
   xmlns="http://www.w3.org/2000/svg"
   xmlns:sodipodi="http://sodipodi.sourceforge.net/DTD/sodipodi-0.dtd"
   xmlns:inkscape="http://www.inkscape.org/namespaces/inkscape"
   width="29cm"
   height="15cm"
   viewBox="170 36 571 293"
   id="svg6060"
   version="1.1"
   inkscape:version="0.48.0 r9654"
   sodipodi:docname="fig-18-10-branch-i18n-rebase.dia">
  <metadata
     id="metadata6236">
    <rdf:RDF>
      <cc:Work
         rdf:about="">
        <dc:format>image/svg+xml</dc:format>
        <dc:type
           rdf:resource="http://purl.org/dc/dcmitype/StillImage" />
        <dc:title></dc:title>
      </cc:Work>
    </rdf:RDF>
  </metadata>
  <defs
     id="defs6234" />
  <sodipodi:namedview
     pagecolor="#ffffff"
     bordercolor="#666666"
     borderopacity="1"
     objecttolerance="10"
     gridtolerance="10"
     guidetolerance="10"
     inkscape:pageopacity="0"
     inkscape:pageshadow="2"
     inkscape:window-width="1280"
     inkscape:window-height="752"
     id="namedview6232"
     showgrid="false"
     inkscape:zoom="0.697134"
     inkscape:cx="574.07391"
     inkscape:cy="283.95371"
     inkscape:window-x="0"
     inkscape:window-y="0"
     inkscape:window-maximized="0"
     inkscape:current-layer="svg6060" />
  <ellipse
     sodipodi:ry="12.6265"
     sodipodi:rx="13.078"
     sodipodi:cy="170.02699"
     sodipodi:cx="337.12"
     id="ellipse6064"
     ry="12.6265"
     rx="13.078"
     cy="170.02699"
     cx="337.12"
     style="fill:#ffffff" />
  <ellipse
     sodipodi:ry="12.6265"
     sodipodi:rx="13.078"
     sodipodi:cy="170.02699"
     sodipodi:cx="337.12"
     id="ellipse6066"
     ry="12.6265"
     rx="13.078"
     cy="170.02699"
     cx="337.12"
     style="fill:none;stroke:#000000;stroke-width:2" />
  <text
     id="text6068"
     y="174.13211"
     x="337.12"
     style="font-size:14.1111002px;font-style:normal;font-weight:normal;text-anchor:middle;fill:#000000;font-family:monospace">
    <tspan
       id="tspan6070"
       y="174.13211"
       x="337.12">B</tspan>
  </text>
  <ellipse
     sodipodi:ry="12.6265"
     sodipodi:rx="13.078"
     sodipodi:cy="170.02699"
     sodipodi:cx="240.67799"
     id="ellipse6074"
     ry="12.6265"
     rx="13.078"
     cy="170.02699"
     cx="240.67799"
     style="fill:#ffffff" />
  <ellipse
     sodipodi:ry="12.6265"
     sodipodi:rx="13.078"
     sodipodi:cy="170.02699"
     sodipodi:cx="240.67799"
     id="ellipse6076"
     ry="12.6265"
     rx="13.078"
     cy="170.02699"
     cx="240.67799"
     style="fill:none;stroke:#000000;stroke-width:2" />
  <text
     id="text6078"
     y="174.13211"
     x="240.67799"
     style="font-size:14.1111002px;font-style:normal;font-weight:normal;text-anchor:middle;fill:#000000;font-family:monospace">
    <tspan
       id="tspan6080"
       y="174.13211"
       x="240.67799">A</tspan>
  </text>
  <ellipse
     sodipodi:ry="12.6265"
     sodipodi:rx="13.078"
     sodipodi:cy="170.02699"
     sodipodi:cx="433.56201"
     id="ellipse6084"
     ry="12.6265"
     rx="13.078"
     cy="170.02699"
     cx="433.56201"
     style="fill:#ffffff" />
  <ellipse
     sodipodi:ry="12.6265"
     sodipodi:rx="13.078"
     sodipodi:cy="170.02699"
     sodipodi:cx="433.56201"
     id="ellipse6086"
     ry="12.6265"
     rx="13.078"
     cy="170.02699"
     cx="433.56201"
     style="fill:none;stroke:#000000;stroke-width:2" />
  <text
     id="text6088"
     y="174.13211"
     x="433.56201"
     style="font-size:14.1111002px;font-style:normal;font-weight:normal;text-anchor:middle;fill:#000000;font-family:monospace">
    <tspan
       id="tspan6090"
       y="174.13211"
       x="433.56201">C</tspan>
  </text>
  <ellipse
     sodipodi:ry="12.6265"
     sodipodi:rx="13.078"
     sodipodi:cy="170.02699"
     sodipodi:cx="530.00403"
     id="ellipse6094"
     ry="12.6265"
     rx="13.078"
     cy="170.02699"
     cx="530.00403"
     style="fill:#ffffff" />
  <ellipse
     sodipodi:ry="12.6265"
     sodipodi:rx="13.078"
     sodipodi:cy="170.02699"
     sodipodi:cx="530.00403"
     id="ellipse6096"
     ry="12.6265"
     rx="13.078"
     cy="170.02699"
     cx="530.00403"
     style="fill:none;stroke:#000000;stroke-width:2" />
  <text
     id="text6098"
     y="174.13211"
     x="530.00403"
     style="font-size:14.1111002px;font-style:normal;font-weight:normal;text-anchor:middle;fill:#000000;font-family:monospace">
    <tspan
       id="tspan6100"
       y="174.13211"
       x="530.00403">D</tspan>
  </text>
  <line
     style="fill: none; fill-opacity:0; stroke-width: 2; stroke: #000000"
     x1="253.756"
     y1="170.027"
     x2="324.042"
     y2="170.027"
     id="line6102" />
  <line
     style="fill: none; fill-opacity:0; stroke-width: 2; stroke: #000000"
     x1="350.198"
     y1="170.027"
     x2="420.484"
     y2="170.027"
     id="line6104" />
  <line
     style="fill: none; fill-opacity:0; stroke-width: 2; stroke: #000000"
     x1="446.64"
     y1="170.027"
     x2="516.926"
     y2="170.027"
     id="line6106" />
  <g
     id="g6108">
    <path
       style="fill: #ffff00"
       d="M 680.108 327.888 L 740.258,327.888 L 740.258,300.17 L 710.183,293.24 L 680.108,300.17 L 680.108,327.888z"
       id="path6110" />
    <path
       style="fill: none; fill-opacity:0; stroke-width: 2; stroke: #000000"
       d="M 680.108 327.888 L 740.258,327.888 L 740.258,300.17 L 710.183,293.24 L 680.108,300.17 L 680.108,327.888"
       id="path6112" />
    <text
       style="fill: #000000;text-anchor:middle;font-size:9.03111;font-family:sanserif;font-style:normal;font-weight:700"
       x="710.183"
       y="316.851"
       id="text6114">
      <tspan
         x="710.183"
         y="316.851"
         id="tspan6116">user2/i18n</tspan>
    </text>
  </g>
  <text
     style="fill: #000000;text-anchor:start;font-size:12.8;font-family:sanserif;font-style:normal;font-weight:normal"
     x="254.806"
     y="125.302"
     id="text6118">
    <tspan
       x="254.806"
       y="125.302"
       id="tspan6120" />
  </text>
  <g
     id="g6122">
    <path
       style="fill: #ffff00"
       d="M 210.53 92.5024 L 270.68,92.5024 L 270.68,120.221 L 240.605,127.151 L 210.53,120.221 L 210.53,92.5024z"
       id="path6124" />
    <path
       style="fill: none; fill-opacity:0; stroke-width: 2; stroke: #000000"
       d="M 210.53 92.5024 L 270.68,92.5024 L 270.68,120.221 L 240.605,127.151 L 210.53,120.221 L 210.53,92.5024"
       id="path6126" />
    <text
       style="fill: #000000;text-anchor:middle;font-size:9.03111;font-family:sanserif;font-style:normal;font-weight:700"
       x="240.605"
       y="109.184"
       id="text6128">
      <tspan
         x="240.605"
         y="109.184"
         id="tspan6130">v1.0</tspan>
    </text>
  </g>
  <g
     id="g6132">
    <path
       style="fill: #ffff00"
       d="M 499.736 92.5024 L 559.886,92.5024 L 559.886,120.221 L 529.811,127.151 L 499.736,120.221 L 499.736,92.5024z"
       id="path6134" />
    <path
       style="fill: none; fill-opacity:0; stroke-width: 2; stroke: #000000"
       d="M 499.736 92.5024 L 559.886,92.5024 L 559.886,120.221 L 529.811,127.151 L 499.736,120.221 L 499.736,92.5024"
       id="path6136" />
    <text
       style="fill: #000000;text-anchor:middle;font-size:9.03111;font-family:sanserif;font-style:normal;font-weight:700"
       x="529.811"
       y="109.184"
       id="text6138">
      <tspan
         x="529.811"
         y="109.184"
         id="tspan6140">master</tspan>
    </text>
  </g>
  <g
     id="g6142">
    <line
       style="fill: none; fill-opacity:0; stroke-width: 2; stroke: #000000"
       x1="240.632"
       y1="127.267"
       x2="240.663"
       y2="147.664"
       id="line6144" />
    <polygon
       style="fill: #000000"
       points="240.675,155.164 235.659,145.172 240.663,147.664 245.659,145.156 "
       id="polygon6146" />
    <polygon
       style="fill: none; fill-opacity:0; stroke-width: 2; stroke: #000000"
       points="240.675,155.164 235.659,145.172 240.663,147.664 245.659,145.156 "
       id="polygon6148" />
  </g>
  <g
     id="g6150">
    <path
       style="fill: #d9d9d9"
       d="M 505.414 37.1712 L 548.964,37.1712 C 554.977,37.1712 559.851,43.9777 559.851,52.374 C 559.851,60.7703 554.977,67.5768 548.964,67.5768 L 505.414,67.5768 C 499.4,67.5768 494.526,60.7703 494.526,52.374 C 494.526,43.9777 499.4,37.1712 505.414,37.1712z"
       id="path6152" />
    <path
       style="fill: none; fill-opacity:0; stroke-width: 2; stroke-dasharray: 4; stroke: #000000"
       d="M 505.414 37.1712 L 548.964,37.1712 C 554.977,37.1712 559.851,43.9777 559.851,52.374 C 559.851,60.7703 554.977,67.5768 548.964,67.5768 L 505.414,67.5768 C 499.4,67.5768 494.526,60.7703 494.526,52.374 C 494.526,43.9777 499.4,37.1712 505.414,37.1712"
       id="path6154" />
    <text
       style="fill: #000000;text-anchor:middle;font-size:9.03111;font-family:sanserif;font-style:italic;font-weight:normal"
       x="527.189"
       y="55.1962"
       id="text6156">
      <tspan
         x="527.189"
         y="55.1962"
         id="tspan6158">bugfix#2</tspan>
    </text>
  </g>
  <g
     id="g6160">
    <path
       style="fill: #d9d9d9"
       d="M 409.99 96.7712 L 453.54,96.7712 C 459.553,96.7712 464.427,103.578 464.427,111.974 C 464.427,120.37 459.553,127.177 453.54,127.177 L 409.99,127.177 C 403.976,127.177 399.102,120.37 399.102,111.974 C 399.102,103.578 403.976,96.7712 409.99,96.7712z"
       id="path6162" />
    <path
       style="fill: none; fill-opacity:0; stroke-width: 2; stroke-dasharray: 4; stroke: #000000"
       d="M 409.99 96.7712 L 453.54,96.7712 C 459.553,96.7712 464.427,103.578 464.427,111.974 C 464.427,120.37 459.553,127.177 453.54,127.177 L 409.99,127.177 C 403.976,127.177 399.102,120.37 399.102,111.974 C 399.102,103.578 403.976,96.7712 409.99,96.7712"
       id="path6164" />
    <text
       style="fill: #000000;text-anchor:middle;font-size:9.03111;font-family:sanserif;font-style:italic;font-weight:normal"
       x="431.765"
       y="114.796"
       id="text6166">
      <tspan
         x="431.765"
         y="114.796"
         id="tspan6168">bugfix#1</tspan>
    </text>
  </g>
  <g
     id="g6170">
    <path
       style="fill: #d9d9d9"
       d="M 314.564 96.7712 L 358.114,96.7712 C 364.127,96.7712 369.001,103.578 369.001,111.974 C 369.001,120.37 364.127,127.177 358.114,127.177 L 314.564,127.177 C 308.55,127.177 303.676,120.37 303.676,111.974 C 303.676,103.578 308.55,96.7712 314.564,96.7712z"
       id="path6172" />
    <path
       style="fill: none; fill-opacity:0; stroke-width: 2; stroke-dasharray: 4; stroke: #000000"
       d="M 314.564 96.7712 L 358.114,96.7712 C 364.127,96.7712 369.001,103.578 369.001,111.974 C 369.001,120.37 364.127,127.177 358.114,127.177 L 314.564,127.177 C 308.55,127.177 303.676,120.37 303.676,111.974 C 303.676,103.578 308.55,96.7712 314.564,96.7712"
       id="path6174" />
    <text
       style="fill: #000000;text-anchor:middle;font-size:9.03111;font-family:sanserif;font-style:italic;font-weight:normal"
       x="336.339"
       y="114.796"
       id="text6176">
      <tspan
         x="336.339"
         y="114.796"
         id="tspan6178">getopt</tspan>
    </text>
  </g>
  <g
     id="g6180">
    <line
       style="fill: none; fill-opacity:0; stroke-width: 2; stroke: #000000"
       x1="529.812"
       y1="127.151"
       x2="529.942"
       y2="147.664"
       id="line6182" />
    <polygon
       style="fill: #000000"
       points="529.99,155.164 524.926,145.196 529.942,147.664 534.926,145.132 "
       id="polygon6184" />
    <polygon
       style="fill: none; fill-opacity:0; stroke-width: 2; stroke: #000000"
       points="529.99,155.164 524.926,145.196 529.942,147.664 534.926,145.132 "
       id="polygon6186" />
  </g>
  <g
     id="g6188">
    <path
       style="fill: #d9d9d9"
       d="M 219.138 37.1712 L 262.688,37.1712 C 268.701,37.1712 273.575,43.9777 273.575,52.374 C 273.575,60.7703 268.701,67.5768 262.688,67.5768 L 219.138,67.5768 C 213.124,67.5768 208.25,60.7703 208.25,52.374 C 208.25,43.9777 213.124,37.1712 219.138,37.1712z"
       id="path6190" />
    <path
       style="fill: none; fill-opacity:0; stroke-width: 2; stroke-dasharray: 4; stroke: #000000"
       d="M 219.138 37.1712 L 262.688,37.1712 C 268.701,37.1712 273.575,43.9777 273.575,52.374 C 273.575,60.7703 268.701,67.5768 262.688,67.5768 L 219.138,67.5768 C 213.124,67.5768 208.25,60.7703 208.25,52.374 C 208.25,43.9777 213.124,37.1712 219.138,37.1712"
       id="path6192" />
    <text
       style="fill: #000000;text-anchor:middle;font-size:9.03111;font-family:sanserif;font-style:italic;font-weight:normal"
       x="240.913"
       y="55.1962"
       id="text6194">
      <tspan
         x="240.913"
         y="55.1962"
         id="tspan6196">initial</tspan>
    </text>
  </g>
  <ellipse
     sodipodi:ry="12.6265"
     sodipodi:rx="13.078"
     sodipodi:cy="250.617"
     sodipodi:cx="613.59802"
     id="ellipse6200"
     ry="12.6265"
     rx="13.078"
     cy="250.617"
     cx="613.59802"
     style="fill:#ffffff" />
  <ellipse
     sodipodi:ry="12.6265"
     sodipodi:rx="13.078"
     sodipodi:cy="250.617"
     sodipodi:cx="613.59802"
     id="ellipse6202"
     ry="12.6265"
     rx="13.078"
     cy="250.617"
     cx="613.59802"
     style="fill:none;stroke:#000000;stroke-width:2" />
  <text
     id="text6204"
     y="254.31674"
     x="613.59802"
     style="font-size:12.98219967px;font-style:normal;font-weight:normal;text-anchor:middle;fill:#000000;font-family:monospace">
    <tspan
       id="tspan6206"
       y="254.31674"
       x="613.59802">E'</tspan>
  </text>
  <ellipse
     sodipodi:ry="12.6265"
     sodipodi:rx="13.078"
     sodipodi:cy="250.617"
     sodipodi:cx="710.03998"
     id="ellipse6210"
     ry="12.6265"
     rx="13.078"
     cy="250.617"
     cx="710.03998"
     style="fill:#ffffff" />
  <ellipse
     sodipodi:ry="12.6265"
     sodipodi:rx="13.078"
     sodipodi:cy="250.617"
     sodipodi:cx="710.03998"
     id="ellipse6212"
     ry="12.6265"
     rx="13.078"
     cy="250.617"
     cx="710.03998"
     style="fill:none;stroke:#000000;stroke-width:2" />
  <text
     id="text6214"
     y="254.31674"
     x="710.03998"
     style="font-size:12.98219967px;font-style:normal;font-weight:normal;text-anchor:middle;fill:#000000;font-family:monospace">
    <tspan
       id="tspan6216"
       y="254.31674"
       x="710.03998">F'</tspan>
  </text>
  <line
     style="fill: none; fill-opacity:0; stroke-width: 2; stroke: #000000"
     x1="535.008"
     y1="181.692"
     x2="601.516"
     y2="245.784"
     id="line6218" />
  <line
     style="fill: none; fill-opacity:0; stroke-width: 2; stroke: #000000"
     x1="626.676"
     y1="250.616"
     x2="696.962"
     y2="250.616"
     id="line6220" />
  <g
     id="g6222">
    <line
       style="fill: none; fill-opacity:0; stroke-width: 2; stroke: #000000"
       x1="710.13"
       y1="293.01"
       x2="710.069"
       y2="272.98"
       id="line6224" />
    <polygon
       style="fill: #000000"
       points="710.047,265.48 715.077,275.465 710.069,272.98 705.077,275.495 "
       id="polygon6226" />
    <polygon
       style="fill: none; fill-opacity:0; stroke-width: 2; stroke: #000000"
       points="710.047,265.48 715.077,275.465 710.069,272.98 705.077,275.495 "
       id="polygon6228" />
  </g>
  <line
     style="fill: none; fill-opacity:0; stroke-width: 3; stroke-dasharray: 4; stroke: #000000"
     x1="225.366"
     y1="171.087"
     x2="172.333"
     y2="171.087"
     id="line6230" />
</svg>
