<?xml version="1.0" encoding="UTF-8" standalone="no"?>
<svg
   xmlns:dc="http://purl.org/dc/elements/1.1/"
   xmlns:cc="http://creativecommons.org/ns#"
   xmlns:rdf="http://www.w3.org/1999/02/22-rdf-syntax-ns#"
   xmlns:svg="http://www.w3.org/2000/svg"
   xmlns="http://www.w3.org/2000/svg"
   xmlns:sodipodi="http://sodipodi.sourceforge.net/DTD/sodipodi-0.dtd"
   xmlns:inkscape="http://www.inkscape.org/namespaces/inkscape"
   width="25cm"
   height="11cm"
   viewBox="177 81 499 220"
   id="svg6991"
   version="1.1"
   inkscape:version="0.48.0 r9654"
   sodipodi:docname="fig-13-04-git-clone-3.dia">
  <metadata
     id="metadata7139">
    <rdf:RDF>
      <cc:Work
         rdf:about="">
        <dc:format>image/svg+xml</dc:format>
        <dc:type
           rdf:resource="http://purl.org/dc/dcmitype/StillImage" />
        <dc:title></dc:title>
      </cc:Work>
    </rdf:RDF>
  </metadata>
  <defs
     id="defs7137" />
  <sodipodi:namedview
     pagecolor="#ffffff"
     bordercolor="#666666"
     borderopacity="1"
     objecttolerance="10"
     gridtolerance="10"
     guidetolerance="10"
     inkscape:pageopacity="0"
     inkscape:pageshadow="2"
     inkscape:window-width="1280"
     inkscape:window-height="752"
     id="namedview7135"
     showgrid="false"
     inkscape:zoom="0.57460444"
     inkscape:cx="442.91339"
     inkscape:cy="194.8819"
     inkscape:window-x="0"
     inkscape:window-y="0"
     inkscape:window-maximized="0"
     inkscape:current-layer="svg6991" />
  <g
     id="g6993">
    <path
       style="fill: #cadaa9"
       d="M 249.25 104.948 L 347.75,104.948 C 397,104.948 397,104.948 397,146.461 L 397,229.487 C 397,271 397,271 347.75,271 L 249.25,271 C 200,271 200,271 200,229.487 L 200,146.461 C 200,104.948 200,104.948 249.25,104.948z"
       id="path6995" />
    <path
       style="fill: none; fill-opacity:0; stroke-width: 2; stroke: #333333"
       d="M 249.25 104.948 L 347.75,104.948 C 397,104.948 397,104.948 397,146.461 L 397,229.487 C 397,271 397,271 347.75,271 L 249.25,271 C 200,271 200,271 200,229.487 L 200,146.461 C 200,104.948 200,104.948 249.25,104.948"
       id="path6997" />
    <text
       style="fill: #000000;text-anchor:start;font-size:12.8;font-family:sanserif;font-style:normal;font-weight:normal"
       x="219.85"
       y="123.951"
       id="text6999">
      <tspan
         x="219.85"
         y="123.951"
         id="tspan7001" />
    </text>
  </g>
  <text
     style="fill: #000000;text-anchor:start;font-size:11.2889;font-family:黑体;font-style:normal;font-weight:normal"
     x="218.7"
     y="135.376"
     id="text7003">
    <tspan
       x="218.7"
       y="135.376"
       id="tspan7005">A 工作区</tspan>
  </text>
  <text
     style="fill: #000000;text-anchor:start;font-size:12.8;font-family:sanserif;font-style:normal;font-weight:normal"
     x="353.578"
     y="264.374"
     id="text7007">
    <tspan
       x="353.578"
       y="264.374"
       id="tspan7009" />
  </text>
  <text
     style="fill: #000000;text-anchor:start;font-size:12.8;font-family:sanserif;font-style:normal;font-weight:normal"
     x="348.572"
     y="270.376"
     id="text7011">
    <tspan
       x="348.572"
       y="270.376"
       id="tspan7013" />
  </text>
  <g
     id="g7015">
    <path
       style="fill: #afc2da"
       d="M 289.572 174.573 C 305.258,165.059 313.1,161.888 328.786,161.888 C 344.472,161.888 352.314,165.059 368,174.573 L 368,225.315 C 352.314,234.829 344.472,238 328.786,238 C 313.1,238 305.258,234.829 289.572,225.315 L 289.572,174.573z"
       id="path7017" />
    <path
       style="fill: none; fill-opacity:0; stroke-width: 2; stroke: #333333"
       d="M 289.572 174.573 C 305.258,165.059 313.1,161.888 328.786,161.888 C 344.472,161.888 352.314,165.059 368,174.573 L 368,225.315 C 352.314,234.829 344.472,238 328.786,238 C 313.1,238 305.258,234.829 289.572,225.315 L 289.572,174.573"
       id="path7019" />
    <path
       style="fill: none; fill-opacity:0; stroke-width: 2; stroke: #333333"
       d="M 289.572 174.573 C 305.258,184.087 313.1,187.259 328.786,187.259 C 344.472,187.259 352.314,184.087 368,174.573"
       id="path7021" />
    <text
       style="fill: #000000;text-anchor:middle;font-size:15.8044;font-family:monospace;font-style:normal;font-weight:700"
       x="328.786"
       y="211.226"
       id="text7023">
      <tspan
         x="328.786"
         y="211.226"
         id="tspan7025">.git</tspan>
    </text>
  </g>
  <g
     id="g7027">
    <line
       style="fill: none; fill-opacity:0; stroke-width: 2; stroke: #333333"
       x1="225.578"
       y1="178.726"
       x2="225.578"
       y2="233.038"
       id="line7029" />
    <line
       style="fill: none; fill-opacity:0; stroke-width: 2; stroke: #333333"
       x1="225.578"
       y1="188.976"
       x2="244.202"
       y2="188.976"
       id="line7031" />
    <line
       style="fill: none; fill-opacity:0; stroke-width: 2; stroke: #333333"
       x1="225.578"
       y1="207.476"
       x2="244.702"
       y2="207.476"
       id="line7033" />
    <line
       style="fill: none; fill-opacity:0; stroke-width: 2; stroke: #333333"
       x1="225.578"
       y1="225.976"
       x2="245.202"
       y2="225.976"
       id="line7035" />
  </g>
  <g
     id="g7037">
    <path
       style="fill: #e6e6e6"
       d="M 216.625 161.625 C 216.625,158.1 216.625,158.1 219.172,158.1 C 221.719,158.1 221.719,158.1 224.266,158.1 C 226.812,158.1 226.812,158.1 226.812,161.625 C 226.812,161.625 234.453,161.625 234.453,161.625 C 234.453,161.625 234.453,175.725 234.453,175.725 C 234.453,175.725 216.625,175.725 216.625,175.725 C 216.625,175.725 216.625,165.15 216.625,161.625z"
       id="path7039" />
    <path
       style="fill: none; fill-opacity:0; stroke-width: 2; stroke: #333333"
       d="M 216.625 161.625 C 216.625,158.1 216.625,158.1 219.172,158.1 C 221.719,158.1 221.719,158.1 224.266,158.1 C 226.812,158.1 226.812,158.1 226.812,161.625 C 226.812,161.625 234.453,161.625 234.453,161.625 C 234.453,161.625 234.453,175.725 234.453,175.725 C 234.453,175.725 216.625,175.725 216.625,175.725 C 216.625,175.725 216.625,165.15 216.625,161.625"
       id="path7041" />
    <path
       style="fill: none; fill-opacity:0; stroke-width: 0.2; stroke: #333333"
       d="M 216.625 161.625 C 216.625,158.1 216.625,158.1 219.172,158.1 C 221.719,158.1 221.719,158.1 224.266,158.1 C 226.812,158.1 226.812,158.1 226.812,161.625 C 226.812,161.625 234.453,161.625 234.453,161.625 C 234.453,161.625 234.453,175.725 234.453,175.725 C 234.453,175.725 216.625,175.725 216.625,175.725 C 216.625,175.725 216.625,165.15 216.625,161.625"
       id="path7043" />
    <polygon
       style="fill: #ffffff"
       points="216.625,175.725 214.078,163.388 231.906,163.388 234.453,175.725 "
       id="polygon7045" />
    <polygon
       style="fill: none; fill-opacity:0; stroke-width: 2; stroke: #333333"
       points="216.625,175.725 214.078,163.388 231.906,163.388 234.453,175.725 "
       id="polygon7047" />
    <polygon
       style="fill: none; fill-opacity:0; stroke-width: 0.2; stroke: #333333"
       points="216.625,175.725 214.078,163.388 231.906,163.388 234.453,175.725 "
       id="polygon7049" />
    <text
       style="fill: #000000;text-anchor:middle;font-size:1.6;font-family:sanserif;font-style:normal;font-weight:normal"
       x="224.266"
       y="168.294"
       id="text7051">
      <tspan
         x="224.266"
         y="168.294"
         id="tspan7053" />
    </text>
  </g>
  <g
     id="g7055">
    <polygon
       style="fill: #ffffff"
       points="249.578,181.35 256.712,181.35 259.09,183.728 259.09,193.241 249.578,193.241 "
       id="polygon7057" />
    <polygon
       style="fill: none; fill-opacity:0; stroke-width: 2; stroke: #333333"
       points="249.578,181.35 256.712,181.35 259.09,183.728 259.09,193.241 249.578,193.241 "
       id="polygon7059" />
    <polyline
       style="fill: none; fill-opacity:0; stroke-width: 2; stroke: #333333"
       points="256.712,181.35 256.712,183.728 259.09,183.728 259.09,183.728 "
       id="polyline7061" />
  </g>
  <g
     id="g7063">
    <polygon
       style="fill: #ffffff"
       points="251.052,201.826 258.186,201.826 260.564,204.204 260.564,213.717 251.052,213.717 "
       id="polygon7065" />
    <polygon
       style="fill: none; fill-opacity:0; stroke-width: 2; stroke: #333333"
       points="251.052,201.826 258.186,201.826 260.564,204.204 260.564,213.717 251.052,213.717 "
       id="polygon7067" />
    <polyline
       style="fill: none; fill-opacity:0; stroke-width: 2; stroke: #333333"
       points="258.186,201.826 258.186,204.204 260.564,204.204 260.564,204.204 "
       id="polyline7069" />
  </g>
  <g
     id="g7071">
    <polygon
       style="fill: #ffffff"
       points="251.552,221.326 258.686,221.326 261.065,223.704 261.065,233.217 251.552,233.217 "
       id="polygon7073" />
    <polygon
       style="fill: none; fill-opacity:0; stroke-width: 2; stroke: #333333"
       points="251.552,221.326 258.686,221.326 261.065,223.704 261.065,233.217 251.552,233.217 "
       id="polygon7075" />
    <polyline
       style="fill: none; fill-opacity:0; stroke-width: 2; stroke: #333333"
       points="258.686,221.326 258.686,223.704 261.065,223.704 261.065,223.704 "
       id="polyline7077" />
  </g>
  <text
     style="fill: #000000;text-anchor:start;font-size:12.8;font-family:sanserif;font-style:normal;font-weight:normal"
     x="690.278"
     y="264.126"
     id="text7079">
    <tspan
       x="690.278"
       y="264.126"
       id="tspan7081" />
  </text>
  <text
     style="fill: #000000;text-anchor:start;font-size:12.8;font-family:sanserif;font-style:normal;font-weight:normal"
     x="685.272"
     y="270.128"
     id="text7083">
    <tspan
       x="685.272"
       y="270.128"
       id="tspan7085" />
  </text>
  <g
     id="g7087">
    <path
       style="fill: #afc2da"
       d="M 580.272 159.438 C 599.018,146.359 608.39,142 627.136,142 C 645.882,142 655.254,146.359 674,159.438 L 674,229.188 C 655.254,242.266 645.882,246.625 627.136,246.625 C 608.39,246.625 599.018,242.266 580.272,229.188 L 580.272,159.438z"
       id="path7089" />
    <path
       style="fill: none; fill-opacity:0; stroke-width: 2; stroke: #333333"
       d="M 580.272 159.438 C 599.018,146.359 608.39,142 627.136,142 C 645.882,142 655.254,146.359 674,159.438 L 674,229.188 C 655.254,242.266 645.882,246.625 627.136,246.625 C 608.39,246.625 599.018,242.266 580.272,229.188 L 580.272,159.438"
       id="path7091" />
    <path
       style="fill: none; fill-opacity:0; stroke-width: 2; stroke: #333333"
       d="M 580.272 159.438 C 599.018,172.516 608.39,176.875 627.136,176.875 C 645.882,176.875 655.254,172.516 674,159.438"
       id="path7093" />
    <text
       style="fill: #000000;text-anchor:middle;font-size:15.8044;font-family:monospace;font-style:normal;font-weight:700"
       x="627.136"
       y="207.97"
       id="text7095">
      <tspan
         x="627.136"
         y="207.97"
         id="tspan7097">.git</tspan>
    </text>
  </g>
  <g
     id="g7099">
    <line
       style="fill: none; fill-opacity:0; stroke-width: 2; stroke: #000000"
       x1="398.1"
       y1="198.054"
       x2="568.264"
       y2="198.003"
       id="line7101" />
    <polygon
       style="fill: #000000"
       points="575.764,198.001 565.765,203.004 568.264,198.003 565.762,193.004 "
       id="polygon7103" />
    <polygon
       style="fill: none; fill-opacity:0; stroke-width: 2; stroke: #000000"
       points="575.764,198.001 565.765,203.004 568.264,198.003 565.762,193.004 "
       id="polygon7105" />
  </g>
  <text
     style="fill: #000000;text-anchor:start;font-size:12.8;font-family:sanserif;font-style:normal;font-weight:normal"
     x="447.25"
     y="150.469"
     id="text7107">
    <tspan
       x="447.25"
       y="150.469"
       id="tspan7109" />
  </text>
  <text
     style="fill: #000000;text-anchor:start;font-size:15.8044;font-family:sanserif;font-style:normal;font-weight:normal"
     x="454.25"
     y="188.968"
     id="text7111">
    <tspan
       x="454.25"
       y="188.968"
       id="tspan7113">git push</tspan>
  </text>
  <text
     style="fill: #000000;text-anchor:start;font-size:18.0622;font-family:sanserif;font-style:normal;font-weight:700"
     x="262"
     y="301.278"
     id="text7115">
    <tspan
       x="262"
       y="301.278"
       id="tspan7117">A</tspan>
  </text>
  <text
     style="fill: #000000;text-anchor:start;font-size:18.0622;font-family:sanserif;font-style:normal;font-weight:700"
     x="608.7"
     y="301.278"
     id="text7119">
    <tspan
       x="608.7"
       y="301.278"
       id="tspan7121">B.git</tspan>
  </text>
  <text
     style="fill: #000000;text-anchor:start;font-size:15.8044;font-family:sanserif;font-style:normal;font-weight:normal"
     x="438.04"
     y="123.025"
     id="text7123">
    <tspan
       x="438.04"
       y="123.025"
       id="tspan7125">git init --bare</tspan>
  </text>
  <g
     id="g7127">
    <path
       style="fill: none; fill-opacity:0; stroke-width: 2; stroke-dasharray: 4; stroke: #000000"
       d="M 490.34 130.625 C 542.34,139.625 525.34,169.625 567.668,174.509"
       id="path7129" />
    <polygon
       style="fill: #000000"
       points="575.119,175.369 564.611,179.189 567.668,174.509 565.758,169.255 "
       id="polygon7131" />
    <polygon
       style="fill: none; fill-opacity:0; stroke-width: 2; stroke: #000000"
       points="575.119,175.369 564.611,179.189 567.668,174.509 565.758,169.255 "
       id="polygon7133" />
  </g>
</svg>
