<?xml version="1.0" encoding="UTF-8" standalone="no"?>
<svg
   xmlns:dc="http://purl.org/dc/elements/1.1/"
   xmlns:cc="http://creativecommons.org/ns#"
   xmlns:rdf="http://www.w3.org/1999/02/22-rdf-syntax-ns#"
   xmlns:svg="http://www.w3.org/2000/svg"
   xmlns="http://www.w3.org/2000/svg"
   xmlns:sodipodi="http://sodipodi.sourceforge.net/DTD/sodipodi-0.dtd"
   xmlns:inkscape="http://www.inkscape.org/namespaces/inkscape"
   width="20cm"
   height="15cm"
   viewBox="170 36 391 293"
   id="svg5502"
   version="1.1"
   inkscape:version="0.48.0 r9654"
   sodipodi:docname="fig-18-07-branch-i18n-complete.dia">
  <metadata
     id="metadata5678">
    <rdf:RDF>
      <cc:Work
         rdf:about="">
        <dc:format>image/svg+xml</dc:format>
        <dc:type
           rdf:resource="http://purl.org/dc/dcmitype/StillImage" />
        <dc:title></dc:title>
      </cc:Work>
    </rdf:RDF>
  </metadata>
  <defs
     id="defs5676" />
  <sodipodi:namedview
     pagecolor="#ffffff"
     bordercolor="#666666"
     borderopacity="1"
     objecttolerance="10"
     gridtolerance="10"
     guidetolerance="10"
     inkscape:pageopacity="0"
     inkscape:pageshadow="2"
     inkscape:window-width="1280"
     inkscape:window-height="752"
     id="namedview5674"
     showgrid="false"
     inkscape:zoom="0.98589635"
     inkscape:cx="260.77303"
     inkscape:cy="308.07199"
     inkscape:window-x="0"
     inkscape:window-y="0"
     inkscape:window-maximized="0"
     inkscape:current-layer="svg5502" />
  <ellipse
     sodipodi:ry="12.6265"
     sodipodi:rx="13.078"
     sodipodi:cy="170.02699"
     sodipodi:cx="337.12"
     id="ellipse5506"
     ry="12.6265"
     rx="13.078"
     cy="170.02699"
     cx="337.12"
     style="fill:#ffffff" />
  <ellipse
     sodipodi:ry="12.6265"
     sodipodi:rx="13.078"
     sodipodi:cy="170.02699"
     sodipodi:cx="337.12"
     id="ellipse5508"
     ry="12.6265"
     rx="13.078"
     cy="170.02699"
     cx="337.12"
     style="fill:none;stroke:#000000;stroke-width:2" />
  <text
     id="text5510"
     y="174.04533"
     x="337.12"
     style="font-size:14.1111002px;font-style:normal;font-weight:normal;text-anchor:middle;fill:#000000;font-family:monospace">
    <tspan
       id="tspan5512"
       y="174.04533"
       x="337.12">B</tspan>
  </text>
  <ellipse
     sodipodi:ry="12.6265"
     sodipodi:rx="13.078"
     sodipodi:cy="170.02699"
     sodipodi:cx="240.67799"
     id="ellipse5516"
     ry="12.6265"
     rx="13.078"
     cy="170.02699"
     cx="240.67799"
     style="fill:#ffffff" />
  <ellipse
     sodipodi:ry="12.6265"
     sodipodi:rx="13.078"
     sodipodi:cy="170.02699"
     sodipodi:cx="240.67799"
     id="ellipse5518"
     ry="12.6265"
     rx="13.078"
     cy="170.02699"
     cx="240.67799"
     style="fill:none;stroke:#000000;stroke-width:2" />
  <text
     id="text5520"
     y="174.04533"
     x="240.67799"
     style="font-size:14.1111002px;font-style:normal;font-weight:normal;text-anchor:middle;fill:#000000;font-family:monospace">
    <tspan
       id="tspan5522"
       y="174.04533"
       x="240.67799">A</tspan>
  </text>
  <ellipse
     sodipodi:ry="12.6265"
     sodipodi:rx="13.078"
     sodipodi:cy="170.02699"
     sodipodi:cx="433.56201"
     id="ellipse5526"
     ry="12.6265"
     rx="13.078"
     cy="170.02699"
     cx="433.56201"
     style="fill:#ffffff" />
  <ellipse
     sodipodi:ry="12.6265"
     sodipodi:rx="13.078"
     sodipodi:cy="170.02699"
     sodipodi:cx="433.56201"
     id="ellipse5528"
     ry="12.6265"
     rx="13.078"
     cy="170.02699"
     cx="433.56201"
     style="fill:none;stroke:#000000;stroke-width:2" />
  <text
     id="text5530"
     y="174.04533"
     x="433.56201"
     style="font-size:14.1111002px;font-style:normal;font-weight:normal;text-anchor:middle;fill:#000000;font-family:monospace">
    <tspan
       id="tspan5532"
       y="174.04533"
       x="433.56201">C</tspan>
  </text>
  <ellipse
     sodipodi:ry="12.6265"
     sodipodi:rx="13.078"
     sodipodi:cy="170.02699"
     sodipodi:cx="530.00403"
     id="ellipse5536"
     ry="12.6265"
     rx="13.078"
     cy="170.02699"
     cx="530.00403"
     style="fill:#ffffff" />
  <ellipse
     sodipodi:ry="12.6265"
     sodipodi:rx="13.078"
     sodipodi:cy="170.02699"
     sodipodi:cx="530.00403"
     id="ellipse5538"
     ry="12.6265"
     rx="13.078"
     cy="170.02699"
     cx="530.00403"
     style="fill:none;stroke:#000000;stroke-width:2" />
  <text
     id="text5540"
     y="174.04533"
     x="530.00403"
     style="font-size:14.1111002px;font-style:normal;font-weight:normal;text-anchor:middle;fill:#000000;font-family:monospace">
    <tspan
       id="tspan5542"
       y="174.04533"
       x="530.00403">D</tspan>
  </text>
  <line
     style="fill: none; fill-opacity:0; stroke-width: 2; stroke: #000000"
     x1="253.756"
     y1="170.027"
     x2="324.042"
     y2="170.027"
     id="line5544" />
  <line
     style="fill: none; fill-opacity:0; stroke-width: 2; stroke: #000000"
     x1="350.198"
     y1="170.027"
     x2="420.484"
     y2="170.027"
     id="line5546" />
  <line
     style="fill: none; fill-opacity:0; stroke-width: 2; stroke: #000000"
     x1="446.64"
     y1="170.027"
     x2="516.926"
     y2="170.027"
     id="line5548" />
  <g
     id="g5550">
    <path
       style="fill: #ffff00"
       d="M 403.63 327.888 L 463.78,327.888 L 463.78,300.17 L 433.705,293.24 L 403.63,300.17 L 403.63,327.888z"
       id="path5552" />
    <path
       style="fill: none; fill-opacity:0; stroke-width: 2; stroke: #000000"
       d="M 403.63 327.888 L 463.78,327.888 L 463.78,300.17 L 433.705,293.24 L 403.63,300.17 L 403.63,327.888"
       id="path5554" />
    <text
       style="fill: #000000;text-anchor:middle;font-size:9.03111;font-family:sanserif;font-style:normal;font-weight:700"
       x="433.705"
       y="316.851"
       id="text5556">
      <tspan
         x="433.705"
         y="316.851"
         id="tspan5558">user2/i18n</tspan>
    </text>
  </g>
  <text
     style="fill: #000000;text-anchor:start;font-size:12.8;font-family:sanserif;font-style:normal;font-weight:normal"
     x="254.806"
     y="125.302"
     id="text5560">
    <tspan
       x="254.806"
       y="125.302"
       id="tspan5562" />
  </text>
  <g
     id="g5564">
    <path
       style="fill: #ffff00"
       d="M 210.53 92.5024 L 270.68,92.5024 L 270.68,120.221 L 240.605,127.151 L 210.53,120.221 L 210.53,92.5024z"
       id="path5566" />
    <path
       style="fill: none; fill-opacity:0; stroke-width: 2; stroke: #000000"
       d="M 210.53 92.5024 L 270.68,92.5024 L 270.68,120.221 L 240.605,127.151 L 210.53,120.221 L 210.53,92.5024"
       id="path5568" />
    <text
       style="fill: #000000;text-anchor:middle;font-size:9.03111;font-family:sanserif;font-style:normal;font-weight:700"
       x="240.605"
       y="109.184"
       id="text5570">
      <tspan
         x="240.605"
         y="109.184"
         id="tspan5572">v1.0</tspan>
    </text>
  </g>
  <g
     id="g5574">
    <path
       style="fill: #ffff00"
       d="M 499.736 92.5024 L 559.886,92.5024 L 559.886,120.221 L 529.811,127.151 L 499.736,120.221 L 499.736,92.5024z"
       id="path5576" />
    <path
       style="fill: none; fill-opacity:0; stroke-width: 2; stroke: #000000"
       d="M 499.736 92.5024 L 559.886,92.5024 L 559.886,120.221 L 529.811,127.151 L 499.736,120.221 L 499.736,92.5024"
       id="path5578" />
    <text
       style="fill: #000000;text-anchor:middle;font-size:9.03111;font-family:sanserif;font-style:normal;font-weight:700"
       x="529.811"
       y="109.184"
       id="text5580">
      <tspan
         x="529.811"
         y="109.184"
         id="tspan5582">master</tspan>
    </text>
  </g>
  <g
     id="g5584">
    <line
       style="fill: none; fill-opacity:0; stroke-width: 2; stroke: #000000"
       x1="240.632"
       y1="127.267"
       x2="240.663"
       y2="147.664"
       id="line5586" />
    <polygon
       style="fill: #000000"
       points="240.675,155.164 235.659,145.172 240.663,147.664 245.659,145.156 "
       id="polygon5588" />
    <polygon
       style="fill: none; fill-opacity:0; stroke-width: 2; stroke: #000000"
       points="240.675,155.164 235.659,145.172 240.663,147.664 245.659,145.156 "
       id="polygon5590" />
  </g>
  <g
     id="g5592">
    <path
       style="fill: #d9d9d9"
       d="M 505.414 37.1712 L 548.964,37.1712 C 554.977,37.1712 559.851,43.9777 559.851,52.374 C 559.851,60.7703 554.977,67.5768 548.964,67.5768 L 505.414,67.5768 C 499.4,67.5768 494.526,60.7703 494.526,52.374 C 494.526,43.9777 499.4,37.1712 505.414,37.1712z"
       id="path5594" />
    <path
       style="fill: none; fill-opacity:0; stroke-width: 2; stroke-dasharray: 4; stroke: #000000"
       d="M 505.414 37.1712 L 548.964,37.1712 C 554.977,37.1712 559.851,43.9777 559.851,52.374 C 559.851,60.7703 554.977,67.5768 548.964,67.5768 L 505.414,67.5768 C 499.4,67.5768 494.526,60.7703 494.526,52.374 C 494.526,43.9777 499.4,37.1712 505.414,37.1712"
       id="path5596" />
    <text
       style="fill: #000000;text-anchor:middle;font-size:9.03111;font-family:sanserif;font-style:italic;font-weight:normal"
       x="527.189"
       y="55.1962"
       id="text5598">
      <tspan
         x="527.189"
         y="55.1962"
         id="tspan5600">bugfix#2</tspan>
    </text>
  </g>
  <g
     id="g5602">
    <path
       style="fill: #d9d9d9"
       d="M 409.99 96.7712 L 453.54,96.7712 C 459.553,96.7712 464.427,103.578 464.427,111.974 C 464.427,120.37 459.553,127.177 453.54,127.177 L 409.99,127.177 C 403.976,127.177 399.102,120.37 399.102,111.974 C 399.102,103.578 403.976,96.7712 409.99,96.7712z"
       id="path5604" />
    <path
       style="fill: none; fill-opacity:0; stroke-width: 2; stroke-dasharray: 4; stroke: #000000"
       d="M 409.99 96.7712 L 453.54,96.7712 C 459.553,96.7712 464.427,103.578 464.427,111.974 C 464.427,120.37 459.553,127.177 453.54,127.177 L 409.99,127.177 C 403.976,127.177 399.102,120.37 399.102,111.974 C 399.102,103.578 403.976,96.7712 409.99,96.7712"
       id="path5606" />
    <text
       style="fill: #000000;text-anchor:middle;font-size:9.03111;font-family:sanserif;font-style:italic;font-weight:normal"
       x="431.765"
       y="114.796"
       id="text5608">
      <tspan
         x="431.765"
         y="114.796"
         id="tspan5610">bugfix#1</tspan>
    </text>
  </g>
  <g
     id="g5612">
    <path
       style="fill: #d9d9d9"
       d="M 314.564 96.7712 L 358.114,96.7712 C 364.127,96.7712 369.001,103.578 369.001,111.974 C 369.001,120.37 364.127,127.177 358.114,127.177 L 314.564,127.177 C 308.55,127.177 303.676,120.37 303.676,111.974 C 303.676,103.578 308.55,96.7712 314.564,96.7712z"
       id="path5614" />
    <path
       style="fill: none; fill-opacity:0; stroke-width: 2; stroke-dasharray: 4; stroke: #000000"
       d="M 314.564 96.7712 L 358.114,96.7712 C 364.127,96.7712 369.001,103.578 369.001,111.974 C 369.001,120.37 364.127,127.177 358.114,127.177 L 314.564,127.177 C 308.55,127.177 303.676,120.37 303.676,111.974 C 303.676,103.578 308.55,96.7712 314.564,96.7712"
       id="path5616" />
    <text
       style="fill: #000000;text-anchor:middle;font-size:9.03111;font-family:sanserif;font-style:italic;font-weight:normal"
       x="336.339"
       y="114.796"
       id="text5618">
      <tspan
         x="336.339"
         y="114.796"
         id="tspan5620">getopt</tspan>
    </text>
  </g>
  <g
     id="g5622">
    <line
       style="fill: none; fill-opacity:0; stroke-width: 2; stroke: #000000"
       x1="529.812"
       y1="127.151"
       x2="529.942"
       y2="147.664"
       id="line5624" />
    <polygon
       style="fill: #000000"
       points="529.99,155.164 524.926,145.196 529.942,147.664 534.926,145.132 "
       id="polygon5626" />
    <polygon
       style="fill: none; fill-opacity:0; stroke-width: 2; stroke: #000000"
       points="529.99,155.164 524.926,145.196 529.942,147.664 534.926,145.132 "
       id="polygon5628" />
  </g>
  <g
     id="g5630">
    <path
       style="fill: #d9d9d9"
       d="M 219.138 37.1712 L 262.688,37.1712 C 268.701,37.1712 273.575,43.9777 273.575,52.374 C 273.575,60.7703 268.701,67.5768 262.688,67.5768 L 219.138,67.5768 C 213.124,67.5768 208.25,60.7703 208.25,52.374 C 208.25,43.9777 213.124,37.1712 219.138,37.1712z"
       id="path5632" />
    <path
       style="fill: none; fill-opacity:0; stroke-width: 2; stroke-dasharray: 4; stroke: #000000"
       d="M 219.138 37.1712 L 262.688,37.1712 C 268.701,37.1712 273.575,43.9777 273.575,52.374 C 273.575,60.7703 268.701,67.5768 262.688,67.5768 L 219.138,67.5768 C 213.124,67.5768 208.25,60.7703 208.25,52.374 C 208.25,43.9777 213.124,37.1712 219.138,37.1712"
       id="path5634" />
    <text
       style="fill: #000000;text-anchor:middle;font-size:9.03111;font-family:sanserif;font-style:italic;font-weight:normal"
       x="240.913"
       y="55.1962"
       id="text5636">
      <tspan
         x="240.913"
         y="55.1962"
         id="tspan5638">initial</tspan>
    </text>
  </g>
  <ellipse
     sodipodi:ry="12.6265"
     sodipodi:rx="13.078"
     sodipodi:cy="250.617"
     sodipodi:cx="337.12"
     id="ellipse5642"
     ry="12.6265"
     rx="13.078"
     cy="250.617"
     cx="337.12"
     style="fill:#ffffff" />
  <ellipse
     sodipodi:ry="12.6265"
     sodipodi:rx="13.078"
     sodipodi:cy="250.617"
     sodipodi:cx="337.12"
     id="ellipse5644"
     ry="12.6265"
     rx="13.078"
     cy="250.617"
     cx="337.12"
     style="fill:none;stroke:#000000;stroke-width:2" />
  <text
     id="text5646"
     y="254.63533"
     x="337.12"
     style="font-size:14.1111002px;font-style:normal;font-weight:normal;text-anchor:middle;fill:#000000;font-family:monospace">
    <tspan
       id="tspan5648"
       y="254.63533"
       x="337.12">E</tspan>
  </text>
  <ellipse
     sodipodi:ry="12.6265"
     sodipodi:rx="13.078"
     sodipodi:cy="250.617"
     sodipodi:cx="433.56201"
     id="ellipse5652"
     ry="12.6265"
     rx="13.078"
     cy="250.617"
     cx="433.56201"
     style="fill:#ffffff" />
  <ellipse
     sodipodi:ry="12.6265"
     sodipodi:rx="13.078"
     sodipodi:cy="250.617"
     sodipodi:cx="433.56201"
     id="ellipse5654"
     ry="12.6265"
     rx="13.078"
     cy="250.617"
     cx="433.56201"
     style="fill:none;stroke:#000000;stroke-width:2" />
  <text
     id="text5656"
     y="254.63533"
     x="433.56201"
     style="font-size:14.1111002px;font-style:normal;font-weight:normal;text-anchor:middle;fill:#000000;font-family:monospace">
    <tspan
       id="tspan5658"
       y="254.63533"
       x="433.56201">F</tspan>
  </text>
  <line
     style="fill: none; fill-opacity:0; stroke-width: 2; stroke: #000000"
     x1="249.926"
     y1="178.955"
     x2="325.038"
     y2="245.784"
     id="line5660" />
  <line
     style="fill: none; fill-opacity:0; stroke-width: 2; stroke: #000000"
     x1="350.198"
     y1="250.616"
     x2="420.484"
     y2="250.616"
     id="line5662" />
  <g
     id="g5664">
    <line
       style="fill: none; fill-opacity:0; stroke-width: 2; stroke: #000000"
       x1="433.652"
       y1="293.01"
       x2="433.591"
       y2="272.978"
       id="line5666" />
    <polygon
       style="fill: #000000"
       points="433.569,265.478 438.599,275.463 433.591,272.978 428.599,275.493 "
       id="polygon5668" />
    <polygon
       style="fill: none; fill-opacity:0; stroke-width: 2; stroke: #000000"
       points="433.569,265.478 438.599,275.463 433.591,272.978 428.599,275.493 "
       id="polygon5670" />
  </g>
  <line
     style="fill: none; fill-opacity:0; stroke-width: 3; stroke-dasharray: 4; stroke: #000000"
     x1="225.366"
     y1="171.087"
     x2="172.333"
     y2="171.087"
     id="line5672" />
</svg>
