<?xml version="1.0" encoding="UTF-8" standalone="no"?>
<svg
   xmlns:dc="http://purl.org/dc/elements/1.1/"
   xmlns:cc="http://creativecommons.org/ns#"
   xmlns:rdf="http://www.w3.org/1999/02/22-rdf-syntax-ns#"
   xmlns:svg="http://www.w3.org/2000/svg"
   xmlns="http://www.w3.org/2000/svg"
   xmlns:sodipodi="http://sodipodi.sourceforge.net/DTD/sodipodi-0.dtd"
   xmlns:inkscape="http://www.inkscape.org/namespaces/inkscape"
   width="29cm"
   height="15cm"
   viewBox="170 36 571 293"
   id="svg5882"
   version="1.1"
   inkscape:version="0.48.0 r9654"
   sodipodi:docname="fig-18-09-branch-i18n-rebase-complete.dia">
  <metadata
     id="metadata6058">
    <rdf:RDF>
      <cc:Work
         rdf:about="">
        <dc:format>image/svg+xml</dc:format>
        <dc:type
           rdf:resource="http://purl.org/dc/dcmitype/StillImage" />
        <dc:title></dc:title>
      </cc:Work>
    </rdf:RDF>
  </metadata>
  <defs
     id="defs6056" />
  <sodipodi:namedview
     pagecolor="#ffffff"
     bordercolor="#666666"
     borderopacity="1"
     objecttolerance="10"
     gridtolerance="10"
     guidetolerance="10"
     inkscape:pageopacity="0"
     inkscape:pageshadow="2"
     inkscape:window-width="1280"
     inkscape:window-height="752"
     id="namedview6054"
     showgrid="false"
     inkscape:zoom="0.697134"
     inkscape:cx="560.55986"
     inkscape:cy="199.57799"
     inkscape:window-x="0"
     inkscape:window-y="0"
     inkscape:window-maximized="0"
     inkscape:current-layer="svg5882" />
  <ellipse
     sodipodi:ry="12.6265"
     sodipodi:rx="13.078"
     sodipodi:cy="170.02699"
     sodipodi:cx="337.12"
     id="ellipse5886"
     ry="12.6265"
     rx="13.078"
     cy="170.02699"
     cx="337.12"
     style="fill:#ffffff" />
  <ellipse
     sodipodi:ry="12.6265"
     sodipodi:rx="13.078"
     sodipodi:cy="170.02699"
     sodipodi:cx="337.12"
     id="ellipse5888"
     ry="12.6265"
     rx="13.078"
     cy="170.02699"
     cx="337.12"
     style="fill:none;stroke:#000000;stroke-width:2" />
  <text
     id="text5890"
     y="174.13211"
     x="337.12"
     style="font-size:14.1111002px;font-style:normal;font-weight:normal;text-anchor:middle;fill:#000000;font-family:monospace">
    <tspan
       id="tspan5892"
       y="174.13211"
       x="337.12">B</tspan>
  </text>
  <ellipse
     sodipodi:ry="12.6265"
     sodipodi:rx="13.078"
     sodipodi:cy="170.02699"
     sodipodi:cx="240.67799"
     id="ellipse5896"
     ry="12.6265"
     rx="13.078"
     cy="170.02699"
     cx="240.67799"
     style="fill:#ffffff" />
  <ellipse
     sodipodi:ry="12.6265"
     sodipodi:rx="13.078"
     sodipodi:cy="170.02699"
     sodipodi:cx="240.67799"
     id="ellipse5898"
     ry="12.6265"
     rx="13.078"
     cy="170.02699"
     cx="240.67799"
     style="fill:none;stroke:#000000;stroke-width:2" />
  <text
     id="text5900"
     y="174.13211"
     x="240.67799"
     style="font-size:14.1111002px;font-style:normal;font-weight:normal;text-anchor:middle;fill:#000000;font-family:monospace">
    <tspan
       id="tspan5902"
       y="174.13211"
       x="240.67799">A</tspan>
  </text>
  <ellipse
     sodipodi:ry="12.6265"
     sodipodi:rx="13.078"
     sodipodi:cy="170.02699"
     sodipodi:cx="433.56201"
     id="ellipse5906"
     ry="12.6265"
     rx="13.078"
     cy="170.02699"
     cx="433.56201"
     style="fill:#ffffff" />
  <ellipse
     sodipodi:ry="12.6265"
     sodipodi:rx="13.078"
     sodipodi:cy="170.02699"
     sodipodi:cx="433.56201"
     id="ellipse5908"
     ry="12.6265"
     rx="13.078"
     cy="170.02699"
     cx="433.56201"
     style="fill:none;stroke:#000000;stroke-width:2" />
  <text
     id="text5910"
     y="174.13211"
     x="433.56201"
     style="font-size:14.1111002px;font-style:normal;font-weight:normal;text-anchor:middle;fill:#000000;font-family:monospace">
    <tspan
       id="tspan5912"
       y="174.13211"
       x="433.56201">C</tspan>
  </text>
  <ellipse
     sodipodi:ry="12.6265"
     sodipodi:rx="13.078"
     sodipodi:cy="170.02699"
     sodipodi:cx="530.00403"
     id="ellipse5916"
     ry="12.6265"
     rx="13.078"
     cy="170.02699"
     cx="530.00403"
     style="fill:#ffffff" />
  <ellipse
     sodipodi:ry="12.6265"
     sodipodi:rx="13.078"
     sodipodi:cy="170.02699"
     sodipodi:cx="530.00403"
     id="ellipse5918"
     ry="12.6265"
     rx="13.078"
     cy="170.02699"
     cx="530.00403"
     style="fill:none;stroke:#000000;stroke-width:2" />
  <text
     id="text5920"
     y="174.13211"
     x="530.00403"
     style="font-size:14.1111002px;font-style:normal;font-weight:normal;text-anchor:middle;fill:#000000;font-family:monospace">
    <tspan
       id="tspan5922"
       y="174.13211"
       x="530.00403">D</tspan>
  </text>
  <line
     style="fill: none; fill-opacity:0; stroke-width: 2; stroke: #000000"
     x1="253.756"
     y1="170.027"
     x2="324.042"
     y2="170.027"
     id="line5924" />
  <line
     style="fill: none; fill-opacity:0; stroke-width: 2; stroke: #000000"
     x1="350.198"
     y1="170.027"
     x2="420.484"
     y2="170.027"
     id="line5926" />
  <line
     style="fill: none; fill-opacity:0; stroke-width: 2; stroke: #000000"
     x1="446.64"
     y1="170.027"
     x2="516.926"
     y2="170.027"
     id="line5928" />
  <g
     id="g5930">
    <path
       style="fill: #ffff00"
       d="M 680.108 327.888 L 740.258,327.888 L 740.258,300.17 L 710.183,293.24 L 680.108,300.17 L 680.108,327.888z"
       id="path5932" />
    <path
       style="fill: none; fill-opacity:0; stroke-width: 2; stroke: #000000"
       d="M 680.108 327.888 L 740.258,327.888 L 740.258,300.17 L 710.183,293.24 L 680.108,300.17 L 680.108,327.888"
       id="path5934" />
    <text
       style="fill: #000000;text-anchor:middle;font-size:9.03111;font-family:sanserif;font-style:normal;font-weight:700"
       x="710.183"
       y="316.851"
       id="text5936">
      <tspan
         x="710.183"
         y="316.851"
         id="tspan5938">user2/i18n</tspan>
    </text>
  </g>
  <text
     style="fill: #000000;text-anchor:start;font-size:12.8;font-family:sanserif;font-style:normal;font-weight:normal"
     x="254.806"
     y="125.302"
     id="text5940">
    <tspan
       x="254.806"
       y="125.302"
       id="tspan5942" />
  </text>
  <g
     id="g5944">
    <path
       style="fill: #ffff00"
       d="M 210.53 92.5024 L 270.68,92.5024 L 270.68,120.221 L 240.605,127.151 L 210.53,120.221 L 210.53,92.5024z"
       id="path5946" />
    <path
       style="fill: none; fill-opacity:0; stroke-width: 2; stroke: #000000"
       d="M 210.53 92.5024 L 270.68,92.5024 L 270.68,120.221 L 240.605,127.151 L 210.53,120.221 L 210.53,92.5024"
       id="path5948" />
    <text
       style="fill: #000000;text-anchor:middle;font-size:9.03111;font-family:sanserif;font-style:normal;font-weight:700"
       x="240.605"
       y="109.184"
       id="text5950">
      <tspan
         x="240.605"
         y="109.184"
         id="tspan5952">v1.0</tspan>
    </text>
  </g>
  <g
     id="g5954">
    <path
       style="fill: #ffff00"
       d="M 679.986 172.752 L 740.136,172.752 L 740.136,200.471 L 710.061,207.401 L 679.986,200.471 L 679.986,172.752z"
       id="path5956" />
    <path
       style="fill: none; fill-opacity:0; stroke-width: 2; stroke: #000000"
       d="M 679.986 172.752 L 740.136,172.752 L 740.136,200.471 L 710.061,207.401 L 679.986,200.471 L 679.986,172.752"
       id="path5958" />
    <text
       style="fill: #000000;text-anchor:middle;font-size:9.03111;font-family:sanserif;font-style:normal;font-weight:700"
       x="710.061"
       y="189.434"
       id="text5960">
      <tspan
         x="710.061"
         y="189.434"
         id="tspan5962">master</tspan>
    </text>
  </g>
  <g
     id="g5964">
    <line
       style="fill: none; fill-opacity:0; stroke-width: 2; stroke: #000000"
       x1="240.632"
       y1="127.267"
       x2="240.663"
       y2="147.664"
       id="line5966" />
    <polygon
       style="fill: #000000"
       points="240.675,155.164 235.659,145.172 240.663,147.664 245.659,145.156 "
       id="polygon5968" />
    <polygon
       style="fill: none; fill-opacity:0; stroke-width: 2; stroke: #000000"
       points="240.675,155.164 235.659,145.172 240.663,147.664 245.659,145.156 "
       id="polygon5970" />
  </g>
  <g
     id="g5972">
    <path
       style="fill: #d9d9d9"
       d="M 505.414 96.7712 L 548.964,96.7712 C 554.977,96.7712 559.851,103.578 559.851,111.974 C 559.851,120.37 554.977,127.177 548.964,127.177 L 505.414,127.177 C 499.4,127.177 494.526,120.37 494.526,111.974 C 494.526,103.578 499.4,96.7712 505.414,96.7712z"
       id="path5974" />
    <path
       style="fill: none; fill-opacity:0; stroke-width: 2; stroke-dasharray: 4; stroke: #000000"
       d="M 505.414 96.7712 L 548.964,96.7712 C 554.977,96.7712 559.851,103.578 559.851,111.974 C 559.851,120.37 554.977,127.177 548.964,127.177 L 505.414,127.177 C 499.4,127.177 494.526,120.37 494.526,111.974 C 494.526,103.578 499.4,96.7712 505.414,96.7712"
       id="path5976" />
    <text
       style="fill: #000000;text-anchor:middle;font-size:9.03111;font-family:sanserif;font-style:italic;font-weight:normal"
       x="527.189"
       y="114.796"
       id="text5978">
      <tspan
         x="527.189"
         y="114.796"
         id="tspan5980">bugfix#2</tspan>
    </text>
  </g>
  <g
     id="g5982">
    <path
       style="fill: #d9d9d9"
       d="M 409.99 96.7712 L 453.54,96.7712 C 459.553,96.7712 464.427,103.578 464.427,111.974 C 464.427,120.37 459.553,127.177 453.54,127.177 L 409.99,127.177 C 403.976,127.177 399.102,120.37 399.102,111.974 C 399.102,103.578 403.976,96.7712 409.99,96.7712z"
       id="path5984" />
    <path
       style="fill: none; fill-opacity:0; stroke-width: 2; stroke-dasharray: 4; stroke: #000000"
       d="M 409.99 96.7712 L 453.54,96.7712 C 459.553,96.7712 464.427,103.578 464.427,111.974 C 464.427,120.37 459.553,127.177 453.54,127.177 L 409.99,127.177 C 403.976,127.177 399.102,120.37 399.102,111.974 C 399.102,103.578 403.976,96.7712 409.99,96.7712"
       id="path5986" />
    <text
       style="fill: #000000;text-anchor:middle;font-size:9.03111;font-family:sanserif;font-style:italic;font-weight:normal"
       x="431.765"
       y="114.796"
       id="text5988">
      <tspan
         x="431.765"
         y="114.796"
         id="tspan5990">bugfix#1</tspan>
    </text>
  </g>
  <g
     id="g5992">
    <path
       style="fill: #d9d9d9"
       d="M 314.564 96.7712 L 358.114,96.7712 C 364.127,96.7712 369.001,103.578 369.001,111.974 C 369.001,120.37 364.127,127.177 358.114,127.177 L 314.564,127.177 C 308.55,127.177 303.676,120.37 303.676,111.974 C 303.676,103.578 308.55,96.7712 314.564,96.7712z"
       id="path5994" />
    <path
       style="fill: none; fill-opacity:0; stroke-width: 2; stroke-dasharray: 4; stroke: #000000"
       d="M 314.564 96.7712 L 358.114,96.7712 C 364.127,96.7712 369.001,103.578 369.001,111.974 C 369.001,120.37 364.127,127.177 358.114,127.177 L 314.564,127.177 C 308.55,127.177 303.676,120.37 303.676,111.974 C 303.676,103.578 308.55,96.7712 314.564,96.7712"
       id="path5996" />
    <text
       style="fill: #000000;text-anchor:middle;font-size:9.03111;font-family:sanserif;font-style:italic;font-weight:normal"
       x="336.339"
       y="114.796"
       id="text5998">
      <tspan
         x="336.339"
         y="114.796"
         id="tspan6000">getopt</tspan>
    </text>
  </g>
  <g
     id="g6002">
    <line
       style="fill: none; fill-opacity:0; stroke-width: 2; stroke: #000000"
       x1="710.062"
       y1="207.4"
       x2="710.047"
       y2="228.254"
       id="line6004" />
    <polygon
       style="fill: #000000"
       points="710.042,235.754 705.049,225.75 710.047,228.254 715.049,225.758 "
       id="polygon6006" />
    <polygon
       style="fill: none; fill-opacity:0; stroke-width: 2; stroke: #000000"
       points="710.042,235.754 705.049,225.75 710.047,228.254 715.049,225.758 "
       id="polygon6008" />
  </g>
  <g
     id="g6010">
    <path
       style="fill: #d9d9d9"
       d="M 219.138 37.1712 L 262.688,37.1712 C 268.701,37.1712 273.575,43.9777 273.575,52.374 C 273.575,60.7703 268.701,67.5768 262.688,67.5768 L 219.138,67.5768 C 213.124,67.5768 208.25,60.7703 208.25,52.374 C 208.25,43.9777 213.124,37.1712 219.138,37.1712z"
       id="path6012" />
    <path
       style="fill: none; fill-opacity:0; stroke-width: 2; stroke-dasharray: 4; stroke: #000000"
       d="M 219.138 37.1712 L 262.688,37.1712 C 268.701,37.1712 273.575,43.9777 273.575,52.374 C 273.575,60.7703 268.701,67.5768 262.688,67.5768 L 219.138,67.5768 C 213.124,67.5768 208.25,60.7703 208.25,52.374 C 208.25,43.9777 213.124,37.1712 219.138,37.1712"
       id="path6014" />
    <text
       style="fill: #000000;text-anchor:middle;font-size:9.03111;font-family:sanserif;font-style:italic;font-weight:normal"
       x="240.913"
       y="55.1962"
       id="text6016">
      <tspan
         x="240.913"
         y="55.1962"
         id="tspan6018">initial</tspan>
    </text>
  </g>
  <ellipse
     sodipodi:ry="12.6265"
     sodipodi:rx="13.078"
     sodipodi:cy="250.617"
     sodipodi:cx="613.59802"
     id="ellipse6022"
     ry="12.6265"
     rx="13.078"
     cy="250.617"
     cx="613.59802"
     style="fill:#ffffff" />
  <ellipse
     sodipodi:ry="12.6265"
     sodipodi:rx="13.078"
     sodipodi:cy="250.617"
     sodipodi:cx="613.59802"
     id="ellipse6024"
     ry="12.6265"
     rx="13.078"
     cy="250.617"
     cx="613.59802"
     style="fill:none;stroke:#000000;stroke-width:2" />
  <text
     id="text6026"
     y="255.42812"
     x="613.59802"
     style="font-size:12.98219967px;font-style:normal;font-weight:normal;text-anchor:middle;fill:#000000;font-family:monospace">
    <tspan
       id="tspan6028"
       y="255.42812"
       x="613.59802">E'</tspan>
  </text>
  <ellipse
     sodipodi:ry="12.6265"
     sodipodi:rx="13.078"
     sodipodi:cy="250.617"
     sodipodi:cx="710.03998"
     id="ellipse6032"
     ry="12.6265"
     rx="13.078"
     cy="250.617"
     cx="710.03998"
     style="fill:#ffffff" />
  <ellipse
     sodipodi:ry="12.6265"
     sodipodi:rx="13.078"
     sodipodi:cy="250.617"
     sodipodi:cx="710.03998"
     id="ellipse6034"
     ry="12.6265"
     rx="13.078"
     cy="250.617"
     cx="710.03998"
     style="fill:none;stroke:#000000;stroke-width:2" />
  <text
     id="text6036"
     y="255.42812"
     x="710.03998"
     style="font-size:12.98219967px;font-style:normal;font-weight:normal;text-anchor:middle;fill:#000000;font-family:monospace">
    <tspan
       id="tspan6038"
       y="255.42812"
       x="710.03998">F'</tspan>
  </text>
  <line
     style="fill: none; fill-opacity:0; stroke-width: 2; stroke: #000000"
     x1="535.008"
     y1="181.692"
     x2="601.516"
     y2="245.784"
     id="line6040" />
  <line
     style="fill: none; fill-opacity:0; stroke-width: 2; stroke: #000000"
     x1="626.676"
     y1="250.616"
     x2="696.962"
     y2="250.616"
     id="line6042" />
  <g
     id="g6044">
    <line
       style="fill: none; fill-opacity:0; stroke-width: 2; stroke: #000000"
       x1="710.13"
       y1="293.01"
       x2="710.069"
       y2="272.98"
       id="line6046" />
    <polygon
       style="fill: #000000"
       points="710.047,265.48 715.077,275.465 710.069,272.98 705.077,275.495 "
       id="polygon6048" />
    <polygon
       style="fill: none; fill-opacity:0; stroke-width: 2; stroke: #000000"
       points="710.047,265.48 715.077,275.465 710.069,272.98 705.077,275.495 "
       id="polygon6050" />
  </g>
  <line
     style="fill: none; fill-opacity:0; stroke-width: 3; stroke-dasharray: 4; stroke: #000000"
     x1="225.366"
     y1="171.087"
     x2="172.333"
     y2="171.087"
     id="line6052" />
</svg>
